<svg xmlns="http://www.w3.org/2000/svg" xmlns:xlink="http://www.w3.org/1999/xlink" width="616" zoomAndPan="magnify" viewBox="0 0 462 613.499987" height="818" preserveAspectRatio="xMidYMid meet" version="1.0"><defs><clipPath id="65c057fc0c"><path d="M 0.1875 324 L 238 324 L 238 552 L 0.1875 552 Z M 0.1875 324 " clip-rule="nonzero"/></clipPath><clipPath id="06ff32ef6d"><path d="M 415 64 L 461.8125 64 L 461.8125 140 L 415 140 Z M 415 64 " clip-rule="nonzero"/></clipPath></defs><path fill="#d8a5ac" d="M 311.234375 569.554688 C 310.9375 569.257812 308.164062 570.332031 307.476562 570.460938 C 307.125 570.535156 306.664062 570.425781 306.183594 570.5 C 294.378906 572.292969 282.074219 571.996094 270.230469 574.050781 C 264.089844 575.105469 249.785156 578.34375 246.660156 584.191406 C 245.214844 586.855469 245.863281 587.855469 248.214844 589.296875 C 259.222656 596.125 281.425781 598.625 294.15625 599.714844 C 323.777344 602.25 358.65625 604.601562 387.28125 596.125 C 393.035156 594.421875 399.882812 591.816406 402.621094 586.152344 C 402.175781 584.800781 402.046875 583.46875 401.25 582.25 C 400.84375 581.621094 399.695312 580.433594 399.085938 579.972656 C 394.664062 576.53125 387.335938 575.699219 382.042969 574.808594 C 367.945312 572.460938 353.511719 571.5 339.394531 569.074219 C 338.359375 568.890625 337.488281 569.480469 336.710938 568.203125 C 336.285156 568.242188 336.492188 568.925781 336.492188 569.316406 C 336.453125 571.628906 335.84375 575.511719 336.027344 577.308594 C 336.101562 577.9375 337.101562 579.289062 335.378906 579.289062 C 334.492188 579.289062 333.917969 578.046875 333.808594 577.308594 C 333.417969 574.496094 334.105469 570.886719 333.84375 567.964844 C 333.808594 567.484375 333.457031 567.222656 333.4375 567.039062 C 329.921875 538.710938 332.917969 510.273438 332.03125 481.425781 C 332.457031 479.855469 332.992188 479.152344 334.714844 479.445312 C 334.789062 480.464844 335.511719 481.832031 335.621094 482.757812 C 336.175781 487.808594 336.195312 493.195312 336.472656 498.320312 C 337.621094 519.542969 338.042969 542.355469 336.917969 563.96875 C 336.878906 564.78125 336.972656 565.613281 336.917969 566.429688 C 341.265625 566.578125 345.667969 566.226562 350.015625 566.429688 C 360.101562 566.855469 371.21875 567.984375 381.121094 569.5 C 389.148438 570.738281 401.175781 572.183594 405.914062 579.75 C 407.058594 581.582031 407.429688 583.285156 407.929688 585.28125 C 407.558594 586.726562 407.449219 588.261719 406.949219 589.667969 C 404.691406 596.089844 395.035156 599.972656 388.984375 601.878906 C 353.402344 613.074219 307.625 608.484375 271.453125 602.804688 C 262.386719 601.378906 249.75 600.066406 242.347656 593.738281 C 241.941406 593.386719 241.941406 592.886719 241.699219 592.609375 C 240.015625 590.722656 239.757812 590.554688 239.203125 588.003906 C 239.164062 587.800781 238.886719 587.652344 238.851562 587.464844 C 238.648438 586.226562 239.460938 585.300781 239.292969 584.007812 C 243.9375 572.683594 258.203125 568.925781 269.175781 567.296875 C 280.945312 565.558594 291.898438 566.058594 303.8125 565.558594 C 305.589844 565.484375 307.476562 564.894531 309.585938 565.078125 C 310.070312 565.113281 310.585938 565.652344 310.679688 565.539062 C 310.734375 565.484375 310.625 564.875 310.734375 564.484375 C 311.546875 561.414062 311.234375 555.457031 311.140625 551.996094 C 310.808594 539.191406 310.03125 527.054688 310.214844 513.84375 C 310.214844 513.566406 310.253906 512.234375 310.273438 512.140625 C 312.4375 500.6875 308.996094 485.460938 311.105469 473.894531 C 311.328125 472.730469 312.046875 471.398438 312.011719 470.140625 C 309.644531 472.082031 307.183594 474.617188 305.570312 477.246094 C 302.351562 482.519531 301.632812 488.957031 298.632812 494.285156 C 294.582031 501.503906 287.902344 505.238281 279.851562 506.554688 C 270.65625 508.050781 253.542969 505.019531 246.992188 513.195312 C 243.496094 517.5625 241.238281 524.648438 238.128906 529.625 C 234.039062 536.15625 224.898438 543.761719 217.648438 546.425781 C 216.648438 546.796875 213.1875 547.90625 212.375 547.832031 C 211.742188 547.777344 211.207031 547.128906 210.394531 547.371094 C 210.078125 544.429688 211.484375 545.464844 213.296875 545.167969 C 218.292969 544.375 227.785156 537.675781 231.042969 533.625 C 233.078125 531.070312 234.945312 526.683594 236.074219 523.574219 C 238.3125 517.433594 239.148438 507.941406 244.125 503.667969 C 247.972656 500.355469 254.558594 498.355469 259.425781 497.671875 C 266.273438 496.691406 275.671875 497.78125 282.019531 495.394531 C 290.882812 492.085938 291.011719 483.941406 294.785156 476.652344 C 297.726562 470.992188 305.777344 462.277344 312.308594 461.332031 C 313.214844 461.203125 316.746094 461.445312 316.914062 461.277344 C 316.96875 461.222656 316.96875 459.554688 316.914062 459.5 C 316.582031 459.167969 308.828125 459.59375 307.347656 459.5 C 291.214844 458.574219 270.933594 453.226562 255.503906 447.4375 C 242.550781 442.589844 221.511719 430.339844 219.332031 415.277344 C 218.609375 410.300781 222.179688 403.382812 226.378906 400.679688 C 233.261719 396.257812 242.105469 395.925781 249.621094 398.753906 C 263.292969 403.882812 280.074219 417.332031 291.175781 426.878906 C 296.636719 431.5625 304.164062 437.964844 308.71875 443.515625 C 309.125 444.011719 309.605469 444.789062 310.011719 445.308594 C 311.066406 446.585938 314.785156 450.433594 316.007812 451.304688 C 316.304688 451.507812 317.597656 452.171875 317.785156 451.953125 C 318.726562 448.230469 321.464844 445.160156 325.554688 445.714844 C 326.257812 445.808594 328.21875 447.324219 328.644531 447.9375 C 328.90625 448.289062 329.589844 449.601562 329.699219 449.988281 C 329.847656 450.507812 329.476562 451.324219 329.976562 451.488281 C 331.015625 450.765625 332.273438 450.230469 333.308594 449.492188 C 339.949219 444.714844 347.425781 437.242188 353.511719 431.523438 C 370.664062 415.40625 395.050781 386.433594 418.347656 381.417969 C 425.804688 379.808594 436.015625 382.378906 440.21875 389.191406 C 440.734375 390.023438 442.273438 393.242188 442.4375 394.054688 C 442.566406 394.667969 442.382812 395.277344 442.457031 395.796875 C 443.605469 402.882812 438.421875 413.558594 433.816406 419.089844 C 420.199219 435.464844 393.941406 445.808594 373.957031 451.96875 C 363.949219 455.058594 351.3125 458.742188 341.078125 459.480469 C 339.488281 459.59375 330.996094 459.09375 330.644531 459.480469 C 330.496094 459.628906 330.734375 462.164062 330.644531 462.832031 C 330.550781 463.496094 329.941406 463.976562 330.179688 464.8125 L 337.507812 464.8125 C 337.65625 464.8125 339.617188 465.144531 340.191406 465.238281 C 357.398438 468.105469 360.414062 483.757812 369.90625 495.433594 C 370.648438 496.339844 371.238281 497.542969 372.332031 498.320312 C 373.664062 499.28125 374.605469 499.226562 376.050781 499.484375 C 380.84375 500.316406 385.855469 499.558594 390.757812 499.855469 C 392.609375 499.964844 395.550781 500.390625 397.421875 500.742188 C 405.320312 502.242188 411.851562 508.292969 414.867188 515.695312 C 415.832031 518.0625 416.257812 520.746094 417.21875 523.113281 C 418.496094 526.316406 421.640625 531.050781 424.972656 532.21875 C 428.300781 533.382812 432.816406 534.011719 436.480469 534.472656 C 437 534.53125 437.292969 534.898438 437.773438 534.957031 C 439.8125 535.140625 443.695312 534.511719 445.304688 534.957031 C 445.695312 535.066406 446.878906 536.695312 446.878906 536.917969 C 446.878906 536.992188 445.933594 537.953125 445.75 537.988281 C 444.660156 538.304688 438.421875 538.136719 436.886719 538.027344 C 436.386719 537.988281 436.089844 537.601562 435.59375 537.546875 C 426.15625 536.582031 415.609375 535.25 410.113281 526.183594 C 406.671875 520.523438 405.082031 512.714844 397.363281 510.976562 C 392.222656 509.808594 385.910156 510.828125 380.527344 510.496094 C 379.066406 510.402344 376.679688 509.882812 375.160156 509.644531 C 369.742188 508.8125 366.132812 506.367188 362.5625 502.277344 C 356.105469 494.878906 351.21875 479.929688 343.945312 474.746094 C 340.652344 472.398438 334.398438 471.472656 330.457031 470.933594 C 330.238281 470.898438 330.125 470.546875 329.535156 470.546875 C 329.089844 470.546875 329.421875 471.066406 329.238281 471.601562 C 329.089844 472.027344 328.257812 473.730469 327.980469 473.894531 C 327.792969 474.007812 326.664062 474.433594 326.371094 474.507812 C 326 474.597656 323.648438 473.746094 323.539062 473.636719 C 323.464844 473.5625 323.539062 473.082031 323.316406 472.765625 C 322.964844 472.265625 321.855469 472.082031 321.300781 471.675781 C 320.320312 470.972656 318.96875 468.53125 318.394531 468.363281 C 316.820312 467.917969 315.34375 469.101562 313.769531 468.789062 C 316.453125 471.453125 315.359375 475.285156 315.527344 478.78125 C 316.507812 498.855469 316.027344 520.132812 315.121094 540.46875 C 314.640625 551.3125 314.214844 562.859375 313.304688 573.71875 C 313.214844 574.867188 313.566406 576.789062 313.304688 577.714844 C 313.027344 578.714844 312.195312 577.9375 311.546875 577.9375 C 311.753906 577.402344 311.105469 576.902344 311.105469 576.828125 C 311.105469 575.753906 311.363281 569.757812 311.105469 569.5 Z M 344.078125 450.621094 C 345.335938 450.953125 346.40625 450.304688 347.390625 450.15625 C 369.222656 446.957031 396.199219 435.113281 414.648438 422.882812 C 421.640625 418.257812 431.558594 408.394531 432.78125 399.753906 C 433.242188 396.515625 432.390625 394.167969 429.726562 392.261719 C 428.003906 391.019531 426.46875 391.019531 424.601562 390.726562 C 423.972656 390.632812 423.65625 390.171875 422.824219 390.246094 C 420.695312 390.449219 417.441406 391.28125 415.351562 392.09375 C 392.648438 401.125 375.273438 425.417969 357.363281 440.164062 C 354.417969 442.589844 351.550781 445.011719 348.5 447.289062 C 347.039062 448.378906 345.207031 449.121094 344.058594 450.621094 Z M 310.347656 451.507812 C 308.902344 451.007812 307.050781 450.046875 305.738281 449.230469 C 286.53125 437.296875 269.214844 416.039062 248.378906 407.636719 C 243.902344 405.824219 239.980469 404.585938 235.1875 405.84375 C 233.320312 406.339844 232.335938 407.117188 230.929688 408.246094 C 230.617188 408.507812 230.15625 408.414062 230.082031 408.488281 C 229.988281 408.582031 230.117188 408.914062 230.007812 409.0625 C 228.839844 410.652344 228.894531 410.691406 228.675781 412.613281 C 228.65625 412.835938 228.210938 413.039062 228.304688 413.503906 C 228.339844 413.707031 228.636719 413.855469 228.675781 414.058594 C 228.988281 416.742188 230.507812 419.421875 232.265625 421.550781 C 244.105469 435.964844 269.566406 442.089844 287.03125 446.679688 C 293.859375 448.472656 301.613281 450.675781 308.441406 451.894531 C 308.867188 451.96875 310.476562 452.304688 310.382812 451.507812 Z M 310.347656 451.507812 " fill-opacity="1" fill-rule="nonzero"/><g clip-path="url(#65c057fc0c)"><path fill="#d8a5ac" d="M 101.78125 512.75 C 101.484375 512.457031 98.710938 513.527344 98.027344 513.660156 C 97.675781 513.734375 97.210938 513.621094 96.730469 513.695312 C 84.925781 515.488281 72.621094 515.195312 60.777344 517.246094 C 54.636719 518.300781 40.332031 521.539062 37.207031 527.386719 C 35.761719 530.050781 36.410156 531.050781 38.761719 532.496094 C 49.769531 539.320312 71.972656 541.820312 84.703125 542.910156 C 114.328125 545.445312 149.203125 547.796875 177.828125 539.320312 C 183.582031 537.621094 190.429688 535.011719 193.167969 529.347656 C 192.722656 528 192.59375 526.664062 191.796875 525.445312 C 191.390625 524.816406 190.242188 523.632812 189.632812 523.167969 C 185.210938 519.726562 177.882812 518.894531 172.59375 518.007812 C 158.492188 515.65625 144.0625 514.695312 129.941406 512.269531 C 128.90625 512.085938 128.039062 512.679688 127.261719 511.402344 C 126.835938 511.4375 127.039062 512.121094 127.039062 512.511719 C 127 514.824219 126.390625 518.710938 126.574219 520.503906 C 126.648438 521.132812 127.648438 522.484375 125.929688 522.484375 C 125.039062 522.484375 124.464844 521.246094 124.355469 520.503906 C 123.964844 517.691406 124.652344 514.085938 124.390625 511.160156 C 124.355469 510.679688 124.003906 510.421875 123.984375 510.234375 C 120.46875 481.90625 123.46875 453.46875 122.578125 424.621094 C 123.003906 423.050781 123.539062 422.347656 125.261719 422.644531 C 125.335938 423.660156 126.058594 425.03125 126.167969 425.953125 C 126.722656 431.007812 126.742188 436.390625 127.019531 441.515625 C 128.167969 462.738281 128.59375 485.550781 127.464844 507.164062 C 127.425781 507.976562 127.519531 508.8125 127.464844 509.625 C 131.8125 509.773438 136.214844 509.421875 140.5625 509.625 C 150.648438 510.050781 161.769531 511.179688 171.667969 512.695312 C 179.695312 513.9375 191.722656 515.378906 196.460938 522.945312 C 197.609375 524.777344 197.976562 526.480469 198.476562 528.480469 C 198.109375 529.921875 197.996094 531.457031 197.496094 532.863281 C 195.238281 539.285156 185.582031 543.171875 179.53125 545.078125 C 143.949219 556.269531 98.171875 551.683594 62 546 C 52.933594 544.578125 40.296875 543.261719 32.894531 536.933594 C 32.488281 536.582031 32.488281 536.082031 32.246094 535.804688 C 30.5625 533.917969 30.304688 533.753906 29.75 531.199219 C 29.710938 530.996094 29.433594 530.847656 29.398438 530.664062 C 29.195312 529.421875 30.007812 528.496094 29.84375 527.203125 C 34.488281 515.878906 48.753906 512.121094 59.722656 510.496094 C 71.492188 508.753906 82.445312 509.253906 94.363281 508.753906 C 96.136719 508.679688 98.027344 508.089844 100.136719 508.273438 C 100.617188 508.3125 101.132812 508.847656 101.226562 508.738281 C 101.28125 508.679688 101.171875 508.070312 101.28125 507.683594 C 102.097656 504.609375 101.78125 498.652344 101.6875 495.191406 C 101.355469 482.386719 100.578125 470.25 100.765625 457.039062 C 100.765625 456.761719 100.800781 455.429688 100.820312 455.335938 C 102.984375 443.882812 99.542969 428.65625 101.652344 417.09375 C 101.875 415.925781 102.59375 414.59375 102.558594 413.335938 C 100.191406 415.277344 97.730469 417.8125 96.121094 420.441406 C 92.898438 425.714844 92.179688 432.152344 89.179688 437.480469 C 85.128906 444.699219 78.449219 448.4375 70.402344 449.75 C 61.203125 451.25 44.089844 448.214844 37.539062 456.390625 C 34.042969 460.757812 31.785156 467.84375 28.675781 472.824219 C 24.585938 479.355469 15.445312 486.957031 8.195312 489.625 C 7.195312 489.992188 3.734375 491.101562 2.921875 491.03125 C 2.292969 490.972656 1.753906 490.328125 0.941406 490.566406 C 0.625 487.625 2.03125 488.660156 3.847656 488.363281 C 8.839844 487.570312 18.332031 480.871094 21.589844 476.820312 C 23.625 474.265625 25.496094 469.878906 26.621094 466.773438 C 28.863281 460.628906 29.695312 451.136719 34.671875 446.863281 C 38.519531 443.550781 45.105469 441.554688 49.972656 440.867188 C 56.820312 439.886719 66.21875 440.980469 72.566406 438.59375 C 81.429688 435.28125 81.558594 427.140625 85.332031 419.847656 C 88.273438 414.1875 96.324219 405.472656 102.855469 404.527344 C 103.761719 404.398438 107.296875 404.640625 107.460938 404.472656 C 107.515625 404.417969 107.515625 402.753906 107.460938 402.695312 C 107.128906 402.363281 99.375 402.789062 97.894531 402.695312 C 81.761719 401.773438 61.480469 396.425781 46.050781 390.632812 C 33.097656 385.785156 12.0625 373.535156 9.878906 358.476562 C 9.15625 353.496094 12.726562 346.578125 16.925781 343.875 C 23.808594 339.453125 32.65625 339.121094 40.167969 341.953125 C 53.210938 346.835938 68.402344 358.972656 79.058594 367.855469 C 85.386719 373.128906 94.011719 380.289062 99.265625 386.710938 C 99.671875 387.210938 100.152344 387.988281 100.558594 388.503906 C 101.613281 389.78125 105.335938 393.628906 106.554688 394.5 C 106.851562 394.703125 108.148438 395.371094 108.332031 395.148438 C 109.273438 391.429688 112.011719 388.355469 116.101562 388.914062 C 116.804688 389.003906 118.765625 390.523438 119.191406 391.132812 C 119.453125 391.484375 120.136719 392.796875 120.246094 393.1875 C 120.394531 393.703125 120.027344 394.519531 120.523438 394.683594 C 121.5625 393.964844 122.820312 393.425781 123.855469 392.6875 C 130.496094 387.914062 137.972656 380.4375 144.0625 374.71875 C 161.210938 358.605469 185.597656 329.628906 208.894531 324.613281 C 216.351562 323.003906 226.566406 325.578125 230.765625 332.386719 C 231.285156 333.21875 232.820312 336.4375 232.984375 337.253906 C 233.113281 337.863281 232.929688 338.472656 233.003906 338.992188 C 234.152344 346.078125 228.96875 356.753906 224.363281 362.285156 C 210.746094 378.660156 184.488281 389.003906 164.507812 395.167969 C 154.496094 398.257812 141.859375 401.9375 131.625 402.679688 C 130.035156 402.789062 121.542969 402.289062 121.191406 402.679688 C 121.042969 402.828125 121.285156 405.359375 121.191406 406.027344 C 121.097656 406.695312 120.488281 407.175781 120.726562 408.007812 L 128.054688 408.007812 C 128.203125 408.007812 130.164062 408.339844 130.738281 408.433594 C 147.945312 411.300781 150.960938 426.953125 160.453125 438.628906 C 161.195312 439.535156 161.785156 440.738281 162.878906 441.515625 C 164.210938 442.476562 165.152344 442.421875 166.597656 442.679688 C 171.390625 443.515625 176.402344 442.753906 181.308594 443.050781 C 183.15625 443.164062 186.097656 443.589844 187.96875 443.941406 C 195.867188 445.4375 202.398438 451.488281 205.417969 458.890625 C 206.378906 461.257812 206.804688 463.941406 207.765625 466.308594 C 209.042969 469.511719 212.1875 474.246094 215.519531 475.414062 C 218.847656 476.578125 223.363281 477.207031 227.027344 477.671875 C 227.546875 477.726562 227.839844 478.097656 228.324219 478.152344 C 230.359375 478.335938 234.242188 477.707031 235.851562 478.152344 C 236.242188 478.261719 237.425781 479.890625 237.425781 480.113281 C 237.425781 480.1875 236.484375 481.148438 236.296875 481.1875 C 235.207031 481.5 228.96875 481.335938 227.433594 481.222656 C 226.933594 481.1875 226.640625 480.796875 226.140625 480.742188 C 216.703125 479.78125 206.15625 478.449219 200.660156 469.382812 C 197.21875 463.71875 195.628906 455.910156 187.914062 454.171875 C 182.769531 453.007812 176.460938 454.023438 171.074219 453.691406 C 169.613281 453.597656 167.226562 453.082031 165.707031 452.839844 C 160.289062 452.007812 156.679688 449.566406 153.109375 445.476562 C 146.652344 438.074219 141.765625 423.125 134.496094 417.941406 C 131.199219 415.59375 124.945312 414.667969 121.007812 414.132812 C 120.785156 414.09375 120.671875 413.742188 120.082031 413.742188 C 119.636719 413.742188 119.96875 414.261719 119.785156 414.796875 C 119.636719 415.222656 118.804688 416.925781 118.527344 417.09375 C 118.339844 417.203125 117.214844 417.628906 116.917969 417.703125 C 116.546875 417.796875 114.195312 416.945312 114.085938 416.832031 C 114.011719 416.757812 114.085938 416.277344 113.863281 415.964844 C 113.511719 415.464844 112.402344 415.277344 111.847656 414.871094 C 110.867188 414.167969 109.515625 411.726562 108.941406 411.558594 C 107.371094 411.117188 105.890625 412.300781 104.316406 411.984375 C 107 414.648438 105.90625 418.480469 106.074219 421.976562 C 107.054688 442.050781 106.574219 463.332031 105.667969 483.664062 C 105.1875 494.507812 104.761719 506.054688 103.855469 516.914062 C 103.761719 518.0625 104.113281 519.988281 103.855469 520.910156 C 103.578125 521.910156 102.742188 521.132812 102.097656 521.132812 C 102.300781 520.597656 101.652344 520.097656 101.652344 520.023438 C 101.652344 518.949219 101.910156 512.957031 101.652344 512.695312 Z M 134.625 393.816406 C 135.882812 394.148438 136.957031 393.5 137.9375 393.351562 C 159.769531 390.152344 186.746094 378.308594 205.195312 366.078125 C 212.1875 361.453125 222.105469 351.589844 223.328125 342.949219 C 223.789062 339.710938 222.9375 337.363281 220.273438 335.457031 C 218.554688 334.21875 217.015625 334.21875 215.148438 333.921875 C 214.519531 333.828125 214.203125 333.367188 213.371094 333.441406 C 211.246094 333.644531 207.988281 334.476562 205.898438 335.289062 C 183.195312 344.320312 165.820312 368.613281 147.910156 383.359375 C 144.96875 385.785156 142.097656 388.207031 139.046875 390.484375 C 137.585938 391.578125 135.753906 392.316406 134.605469 393.816406 Z M 100.894531 394.703125 C 99.449219 394.203125 97.601562 393.242188 96.285156 392.425781 C 77.082031 380.492188 59.761719 359.234375 38.925781 350.832031 C 34.449219 349.019531 30.527344 347.78125 25.734375 349.039062 C 23.867188 349.539062 22.886719 350.316406 21.480469 351.445312 C 21.164062 351.703125 20.703125 351.609375 20.628906 351.683594 C 20.535156 351.777344 20.664062 352.109375 20.554688 352.257812 C 19.386719 353.847656 19.445312 353.886719 19.222656 355.808594 C 19.203125 356.03125 18.757812 356.234375 18.851562 356.699219 C 18.886719 356.902344 19.183594 357.050781 19.222656 357.253906 C 19.535156 359.9375 21.054688 362.621094 22.8125 364.746094 C 34.652344 379.160156 60.113281 385.285156 77.578125 389.875 C 84.40625 391.667969 92.160156 393.871094 98.988281 395.09375 C 99.414062 395.167969 101.023438 395.5 100.929688 394.703125 Z M 100.894531 394.703125 " fill-opacity="1" fill-rule="nonzero"/></g><path fill="#d8a5ac" d="M 369.8125 153.742188 C 369.8125 153.742188 370.515625 153.667969 370.886719 153.777344 C 371.90625 154.074219 371.90625 156.570312 372.089844 157.460938 C 372.847656 161.140625 374.421875 164.84375 374.71875 168.597656 C 375.828125 182.789062 375.570312 196.980469 376.011719 211.230469 C 376.011719 211.726562 376.476562 212.042969 376.492188 212.523438 C 377.34375 238.835938 377.640625 265.203125 378.269531 291.511719 C 378.363281 295.453125 378.695312 301.78125 377.863281 305.335938 C 377.769531 305.761719 377.863281 306.203125 377.769531 306.574219 C 377.679688 306.90625 376.699219 307.851562 376.253906 307.722656 C 374.941406 307.332031 375.308594 303.59375 375.160156 302.597656 C 374.660156 299.171875 374.179688 296.359375 373.828125 292.828125 C 371.515625 269.585938 371.074219 245.738281 369.796875 222.292969 C 369.683594 220.3125 369.90625 218.277344 369.796875 216.28125 C 368.628906 216.890625 367.945312 218.167969 366.855469 218.890625 C 363.078125 221.386719 357.046875 222.699219 352.71875 223.402344 C 345.574219 224.550781 338.691406 224.421875 331.382812 224.699219 C 316.914062 225.253906 302.777344 226.363281 288.347656 224.292969 C 284.980469 223.8125 278.632812 222.773438 275.5625 221.554688 C 274.746094 221.238281 274.210938 220.703125 273.507812 220.277344 C 273.617188 226.550781 273.359375 232.878906 273.507812 239.148438 C 273.988281 262.203125 275.210938 285.332031 276.171875 308.367188 C 276.558594 317.566406 277.523438 327.261719 277.058594 336.308594 C 276.949219 338.492188 277.261719 339.859375 274.414062 339.640625 C 274.414062 338.804688 273.765625 337.898438 273.582031 337.140625 C 272.765625 333.882812 272.617188 330.257812 272.210938 326.964844 C 269.824219 307.242188 269.160156 287.070312 268.214844 267.050781 C 266.773438 236.558594 265.585938 205.011719 268.621094 174.742188 C 269.269531 168.300781 269.804688 161.621094 270.898438 155.277344 C 270.933594 155.035156 271.488281 154.703125 271.304688 154.128906 C 273.542969 154.3125 272.0625 153.742188 272.378906 153.242188 C 273.15625 151.984375 274.265625 151.261719 274.859375 153.019531 C 276.132812 156.832031 282.035156 159.457031 285.792969 160.734375 C 303 166.5625 328.480469 167.042969 346.09375 163.472656 C 350.515625 162.585938 360.5625 159.625 364.226562 157.183594 C 364.855469 156.773438 367.09375 153.796875 367.613281 155.683594 C 367.851562 156.589844 367.484375 156.847656 367.167969 157.441406 C 364.097656 163.269531 359.527344 164.730469 353.699219 166.601562 C 339.671875 171.078125 323.890625 170.761719 309.292969 169.191406 C 300.429688 168.246094 280.203125 165.210938 274.210938 158.125 C 274.007812 157.867188 273.710938 156.792969 273.320312 156.792969 C 272.414062 156.773438 272.75 159.144531 272.675781 159.699219 C 271.933594 164.917969 271.839844 166.765625 272.230469 172.09375 C 273.171875 185.121094 272.527344 198.5 273.101562 211.597656 C 273.117188 212.078125 273.101562 212.578125 273.765625 212.265625 C 274.542969 211.894531 275.691406 210.582031 276.484375 210.101562 C 280.90625 207.398438 287.789062 206.417969 292.804688 205.546875 C 300.6875 204.214844 309.179688 203.21875 317.246094 202.921875 C 333.957031 202.292969 351.738281 202.089844 368.351562 204.660156 C 370.8125 205.050781 369.371094 204.402344 369.460938 203.660156 C 370.425781 196.464844 369.183594 184.363281 368.980469 176.515625 C 368.816406 169.910156 368.261719 162.695312 368.945312 155.21875 C 368.980469 154.738281 369.519531 154.222656 369.40625 154.128906 C 369.277344 154.019531 368.390625 154.3125 368.054688 153.925781 L 366.707031 151.058594 C 360.339844 147.003906 352.644531 144.542969 345.222656 143.027344 C 328.683594 139.640625 310.902344 140.046875 294.5625 144.765625 C 289.105469 145.785156 284.460938 149.023438 279.539062 151.5 C 276.6875 151.910156 275.652344 150.539062 276.226562 147.746094 C 276.578125 146.0625 280.039062 144.65625 281.351562 143.546875 C 301.167969 134.273438 326.425781 133.109375 347.425781 138.140625 C 353.457031 139.585938 366.058594 143.636719 369.609375 148.800781 C 370.296875 149.800781 370.09375 150.796875 370.683594 151.742188 C 370.796875 152.296875 369.667969 153.554688 369.8125 153.683594 Z M 277.058594 216.296875 L 280.816406 217.207031 C 301.261719 219.960938 321.335938 219.351562 342.058594 218.054688 C 349.203125 217.613281 357.011719 217.390625 363.765625 214.46875 C 365.875 213.558594 368.277344 211.507812 367.574219 208.988281 C 367.464844 208.582031 366.929688 208.359375 366.484375 208.304688 C 363.894531 207.953125 360.359375 208.433594 357.582031 208.324219 C 335.566406 207.527344 313.195312 207.363281 291.863281 211.359375 C 287.753906 212.136719 282.960938 212.929688 279.113281 214.578125 C 278.6875 214.761719 276.671875 215.984375 277.058594 216.296875 Z M 277.058594 216.296875 " fill-opacity="1" fill-rule="nonzero"/><path fill="#d8a5ac" d="M 160.363281 96.9375 C 160.363281 96.9375 161.066406 96.863281 161.433594 96.972656 C 162.453125 97.269531 162.453125 99.765625 162.636719 100.65625 C 163.394531 104.335938 164.96875 108.039062 165.265625 111.792969 C 166.375 125.984375 166.117188 140.179688 166.558594 154.425781 C 166.558594 154.925781 167.023438 155.238281 167.042969 155.71875 C 167.890625 182.03125 168.1875 208.398438 168.816406 234.710938 C 168.910156 238.648438 169.242188 244.976562 168.410156 248.53125 C 168.316406 248.957031 168.410156 249.398438 168.316406 249.769531 C 168.226562 250.101562 167.246094 251.046875 166.800781 250.917969 C 165.488281 250.527344 165.855469 246.792969 165.707031 245.792969 C 165.210938 242.371094 164.726562 239.558594 164.375 236.023438 C 162.0625 212.78125 161.621094 188.933594 160.34375 165.488281 C 160.230469 163.511719 160.453125 161.476562 160.34375 159.476562 C 159.175781 160.085938 158.492188 161.363281 157.402344 162.085938 C 153.625 164.582031 147.59375 165.898438 143.265625 166.601562 C 136.121094 167.746094 129.238281 167.617188 121.929688 167.894531 C 107.460938 168.449219 93.324219 169.558594 78.894531 167.488281 C 75.527344 167.007812 69.179688 165.972656 66.109375 164.75 C 65.292969 164.433594 64.757812 163.898438 64.054688 163.472656 C 64.164062 169.746094 63.90625 176.074219 64.054688 182.347656 C 64.535156 205.402344 65.757812 228.527344 66.71875 251.566406 C 67.105469 260.761719 68.070312 270.457031 67.605469 279.503906 C 67.496094 281.6875 67.808594 283.058594 64.960938 282.835938 C 64.960938 282.003906 64.3125 281.097656 64.128906 280.335938 C 63.3125 277.082031 63.164062 273.453125 62.757812 270.160156 C 60.371094 250.4375 59.707031 230.269531 58.761719 210.25 C 57.320312 179.753906 56.136719 148.207031 59.167969 117.9375 C 59.816406 111.5 60.355469 104.820312 61.445312 98.472656 C 61.480469 98.230469 62.039062 97.898438 61.851562 97.324219 C 64.089844 97.511719 62.609375 96.9375 62.925781 96.4375 C 63.703125 95.179688 64.8125 94.457031 65.40625 96.214844 C 66.679688 100.027344 72.582031 102.652344 76.339844 103.929688 C 93.546875 109.757812 119.027344 110.238281 136.640625 106.667969 C 141.0625 105.78125 151.109375 102.820312 154.773438 100.378906 C 155.402344 99.972656 157.640625 96.992188 158.160156 98.878906 C 158.398438 99.785156 158.03125 100.046875 157.714844 100.636719 C 154.644531 106.464844 150.074219 107.925781 144.246094 109.796875 C 130.21875 114.273438 114.4375 113.960938 99.839844 112.386719 C 90.976562 111.441406 70.753906 108.410156 64.757812 101.320312 C 64.554688 101.0625 64.257812 99.988281 63.867188 99.988281 C 62.960938 99.972656 63.296875 102.339844 63.222656 102.894531 C 62.480469 108.113281 62.390625 109.960938 62.777344 115.292969 C 63.722656 128.316406 63.074219 141.695312 63.648438 154.796875 C 63.664062 155.277344 63.648438 155.777344 64.3125 155.460938 C 65.089844 155.089844 66.238281 153.777344 67.03125 153.296875 C 71.457031 150.59375 78.339844 149.613281 83.351562 148.746094 C 91.234375 147.414062 99.726562 146.414062 107.796875 146.117188 C 124.503906 145.488281 142.285156 145.285156 158.898438 147.855469 C 161.359375 148.246094 159.917969 147.597656 160.011719 146.855469 C 160.972656 139.660156 159.734375 127.558594 159.527344 119.714844 C 159.363281 113.109375 158.808594 105.890625 159.492188 98.417969 C 159.527344 97.9375 160.066406 97.417969 159.953125 97.324219 C 159.824219 97.214844 158.9375 97.511719 158.605469 97.121094 L 157.253906 94.253906 C 150.886719 90.203125 143.191406 87.742188 135.769531 86.222656 C 119.230469 82.835938 101.449219 83.246094 85.109375 87.960938 C 79.652344 88.980469 75.007812 92.21875 70.085938 94.699219 C 67.238281 95.105469 66.199219 93.734375 66.773438 90.941406 C 67.125 89.257812 70.585938 87.851562 71.898438 86.742188 C 91.714844 77.472656 116.972656 76.304688 137.972656 81.339844 C 144.003906 82.78125 156.605469 86.835938 160.15625 91.996094 C 160.84375 92.996094 160.640625 93.996094 161.230469 94.9375 C 161.34375 95.492188 160.214844 96.75 160.363281 96.882812 Z M 67.605469 159.496094 L 71.363281 160.402344 C 91.808594 163.160156 111.882812 162.546875 132.605469 161.253906 C 139.75 160.808594 147.558594 160.585938 154.3125 157.664062 C 156.421875 156.757812 158.824219 154.703125 158.121094 152.1875 C 158.011719 151.777344 157.476562 151.558594 157.03125 151.5 C 154.441406 151.148438 150.90625 151.632812 148.132812 151.519531 C 126.113281 150.722656 103.742188 150.558594 82.410156 154.554688 C 78.300781 155.332031 73.507812 156.128906 69.660156 157.773438 C 69.234375 157.960938 67.21875 159.179688 67.605469 159.496094 Z M 67.605469 159.496094 " fill-opacity="1" fill-rule="nonzero"/><g clip-path="url(#06ff32ef6d)"><path fill="#d8a5ac" d="M 460.773438 100.914062 C 460.570312 101.117188 458.128906 101.617188 457.519531 101.875 C 455.539062 102.726562 451.746094 104.410156 450.136719 105.578125 C 447.191406 107.707031 446.417969 113.238281 445.65625 116.625 C 444.175781 123.082031 443.046875 129.742188 441.773438 136.253906 C 441.660156 136.773438 441.421875 139.363281 441.273438 139.511719 C 441.21875 139.566406 439.941406 139.957031 439.738281 139.972656 C 439.179688 140.03125 438.738281 140.011719 438.386719 139.53125 C 438.199219 139.269531 437.351562 138.03125 437.3125 137.9375 C 436.90625 136.53125 437.40625 133.089844 437.3125 131.296875 C 437.21875 129.890625 436.480469 127.410156 436.386719 126.003906 C 436.035156 120.621094 437.3125 114.238281 435.445312 109.183594 C 434.90625 107.722656 434.113281 106.390625 432.574219 105.835938 C 432.242188 105.707031 431.761719 105.835938 431.355469 105.742188 C 428.449219 105.132812 426.15625 105.597656 423.289062 105.375 C 422.101562 105.28125 420.140625 104.671875 418.882812 104.449219 C 418.347656 104.355469 417.664062 104.597656 417.125 104.449219 C 416.941406 104.394531 415.996094 103.449219 415.996094 103.375 C 415.996094 103.300781 416.515625 102.339844 416.683594 102.265625 C 417.753906 101.820312 419.125 100.691406 419.789062 100.527344 C 422.804688 99.824219 426.007812 100.25 429.023438 99.546875 C 431.375 99.007812 432.574219 95.585938 433.222656 93.550781 C 434.628906 89.128906 437.351562 80.136719 437.738281 75.863281 C 438.015625 72.753906 437.480469 69.273438 437.738281 66.109375 C 438.273438 65.277344 439.402344 64.335938 440.164062 65.40625 C 441.421875 67.183594 440.644531 71.308594 440.808594 73.640625 C 441.085938 77.472656 442.585938 81.265625 442.585938 85.1875 C 443.417969 87.519531 442.863281 90.664062 444.140625 92.957031 C 444.640625 93.863281 447.617188 96.214844 448.636719 96.457031 C 449.246094 96.585938 449.859375 96.398438 450.375 96.472656 C 452.652344 96.882812 455.167969 97.566406 457.445312 97.84375 C 459.183594 98.046875 460.476562 97.121094 461.21875 99.414062 C 461.238281 99.488281 460.828125 100.859375 460.773438 100.914062 Z M 449.691406 100.914062 C 446.453125 100.730469 443.308594 99.101562 441.753906 96.195312 L 439.476562 91.144531 C 438.535156 94.347656 437.496094 99.082031 434.613281 101.136719 C 434.222656 101.414062 433.703125 101.171875 433.703125 101.5625 C 434.425781 102.542969 436.367188 102.746094 437.054688 103.542969 C 437.515625 104.097656 439.367188 107.964844 439.71875 108.871094 C 440.605469 111.164062 440.996094 113.535156 440.808594 115.996094 L 441.640625 113.496094 C 442.492188 109.683594 442.9375 105.523438 446.121094 102.894531 L 449.671875 100.894531 Z M 440.808594 118.675781 C 440.808594 118.675781 440.867188 116.976562 440.808594 116.902344 C 440.199219 116.179688 440.199219 119.398438 440.808594 118.675781 Z M 440.808594 118.675781 " fill-opacity="1" fill-rule="nonzero"/></g><path fill="#d8a5ac" d="M 283.960938 239.390625 C 285.941406 238.796875 286.253906 242.832031 286.441406 243.980469 C 290.03125 265.847656 289.011719 289.847656 289.511719 312.367188 C 289.621094 316.992188 288.917969 323.132812 289.476562 327.484375 C 289.605469 328.539062 290.953125 331.421875 291.472656 332.589844 C 292.953125 335.917969 294.914062 339.710938 296.652344 342.949219 C 296.875 343.359375 297.394531 343.652344 297.46875 343.914062 C 297.855469 345.191406 296.285156 346.226562 295.320312 344.726562 C 292.527344 340.488281 290.660156 335.382812 288.125 331.070312 C 286.847656 328.90625 284.203125 326.335938 283.792969 323.875 C 283.664062 323.117188 283.851562 322.355469 283.757812 321.691406 C 282.941406 315.660156 282.648438 309.257812 282.832031 303.058594 C 283.015625 296.859375 283.535156 289.792969 283.738281 284 C 284.089844 274.324219 283.035156 264.792969 282.8125 255.15625 C 282.703125 250.417969 282.925781 245.664062 282.8125 240.925781 C 282.757812 240.480469 283.628906 239.5 283.941406 239.390625 Z M 283.960938 239.390625 " fill-opacity="1" fill-rule="nonzero"/><path fill="#d8a5ac" d="M 74.488281 182.585938 C 76.46875 181.996094 76.785156 186.027344 76.96875 187.175781 C 80.558594 209.046875 79.542969 233.042969 80.039062 255.5625 C 80.152344 260.1875 79.449219 266.332031 80.003906 270.679688 C 80.132812 271.734375 81.484375 274.621094 82 275.785156 C 83.480469 279.117188 85.445312 282.910156 87.183594 286.148438 C 87.40625 286.554688 87.921875 286.851562 87.996094 287.109375 C 88.386719 288.386719 86.8125 289.421875 85.851562 287.921875 C 83.054688 283.6875 81.1875 278.578125 78.652344 274.269531 C 77.375 272.101562 74.730469 269.53125 74.324219 267.070312 C 74.195312 266.3125 74.378906 265.554688 74.285156 264.886719 C 73.472656 258.855469 73.175781 252.453125 73.359375 246.253906 C 73.546875 240.054688 74.0625 232.988281 74.269531 227.195312 C 74.621094 217.519531 73.566406 207.992188 73.34375 198.351562 C 73.230469 193.613281 73.453125 188.859375 73.34375 184.121094 C 73.285156 183.679688 74.15625 182.699219 74.472656 182.585938 Z M 74.488281 182.585938 " fill-opacity="1" fill-rule="nonzero"/><path fill="#d8a5ac" d="M 212.28125 22.371094 C 212.410156 22.5 212.207031 25.054688 212.28125 25.71875 C 212.539062 28.570312 212.707031 28.902344 212.28125 31.898438 C 212.152344 32.769531 212.964844 35.894531 213.167969 37.265625 C 213.632812 40.484375 214.351562 43.480469 214.90625 46.628906 C 215.296875 48.847656 214.722656 50.976562 217.777344 51.289062 C 221.367188 53.175781 225.066406 54.804688 229.15625 55.230469 C 229.859375 59.246094 226.289062 57.582031 223.585938 57.878906 C 222.773438 57.96875 221.328125 58.710938 220.515625 58.800781 C 218.089844 59.078125 216.222656 57.949219 215 60.835938 C 214.519531 61.984375 213.707031 64.90625 213.59375 66.09375 C 213.019531 71.957031 213.410156 77.988281 213.1875 83.875 C 213.078125 86.667969 212.59375 89.683594 212.226562 92.679688 C 211.929688 95.179688 211.410156 98.492188 211.394531 101.171875 C 211.394531 101.859375 211.800781 102.929688 210.726562 102.726562 C 209.597656 101.839844 210.191406 100.285156 210.003906 99.007812 C 209.914062 98.324219 209.226562 97.011719 209.152344 96.308594 C 208.859375 93.644531 208.875 90.515625 208.710938 87.871094 C 208.375 82.652344 207.433594 77.933594 206.933594 72.789062 C 206.710938 70.53125 207.136719 67.941406 206.96875 65.667969 C 206.878906 64.351562 206.230469 62.1875 206.046875 60.820312 C 205.824219 59.097656 206.359375 57.042969 204.304688 55.898438 C 204.101562 55.785156 202.824219 55.324219 202.734375 55.324219 C 202.605469 55.324219 202.308594 55.710938 201.84375 55.710938 C 199.53125 55.710938 197.273438 55.621094 195.183594 55.710938 C 192.703125 55.804688 191.019531 56.25 191.390625 53.269531 C 191.445312 52.84375 191.632812 53.160156 192 52.992188 C 192.445312 52.789062 193.054688 52.289062 193.445312 52.195312 C 195.886719 51.621094 197.738281 51.179688 200.125 50.4375 C 201.808594 49.921875 204.804688 49.253906 206.230469 48.550781 C 206.527344 48.402344 207.914062 47.089844 208.0625 46.832031 C 208.285156 46.421875 209.117188 43.960938 209.171875 43.5 C 209.355469 42.019531 208.800781 40.484375 208.800781 39.484375 C 208.800781 36.859375 210.191406 34.785156 210.058594 31.492188 C 209.949219 28.828125 210.003906 26.792969 210.503906 23.980469 C 210.578125 23.554688 210.375 22.535156 210.503906 22.40625 C 210.558594 22.351562 212.226562 22.351562 212.28125 22.40625 Z M 210.949219 61.207031 C 211.335938 62.929688 210.671875 65.777344 210.949219 67.648438 C 212.429688 68.015625 211.761719 66.148438 211.78125 65.257812 C 211.78125 64.667969 211.835938 64.445312 211.855469 63.890625 C 211.929688 61.949219 212.039062 59.578125 212.78125 57.730469 C 213.925781 54.898438 215.945312 56.5625 217.164062 54.34375 C 215.113281 53.714844 212.503906 52.808594 212.28125 50.347656 C 211.28125 50.882812 211.042969 52.085938 210.058594 52.789062 C 209.597656 53.121094 207.839844 53.675781 207.839844 54.121094 C 207.839844 54.304688 209.285156 56.175781 209.5625 56.839844 C 209.988281 57.933594 209.894531 58.894531 210.117188 59.839844 C 210.207031 60.265625 210.910156 61.003906 210.949219 61.207031 Z M 210.949219 61.207031 " fill-opacity="1" fill-rule="nonzero"/><path fill="#d8a5ac" d="M 125.742188 346.335938 C 125.742188 346.335938 125.316406 345.003906 125.28125 344.800781 C 125.132812 343.726562 125.890625 340.324219 126.242188 339.066406 C 129.40625 327.1875 142.171875 307.796875 149.480469 297.507812 C 152.703125 292.972656 157.9375 287.515625 160.601562 282.890625 C 160.972656 282.242188 161.285156 280.835938 161.65625 279.949219 C 161.933594 279.28125 161.65625 278.96875 162.804688 279.339844 C 164.023438 279.707031 163.175781 280.929688 163.082031 281.390625 C 161.046875 290.644531 156.605469 296.824219 151.722656 304.632812 C 145.058594 315.308594 138.195312 325.871094 132.035156 336.863281 C 130.386719 339.804688 128.90625 342.914062 127.335938 345.910156 C 127.113281 346.410156 125.910156 346.484375 125.78125 346.355469 Z M 125.742188 346.335938 " fill-opacity="1" fill-rule="nonzero"/><path fill="#d8a5ac" d="M 335.195312 403.140625 C 335.195312 403.140625 334.769531 401.808594 334.734375 401.605469 C 334.585938 400.53125 335.34375 397.128906 335.695312 395.867188 C 338.859375 383.992188 351.625 364.597656 358.933594 354.3125 C 362.152344 349.777344 367.390625 344.320312 370.054688 339.695312 C 370.425781 339.046875 370.738281 337.640625 371.109375 336.753906 C 371.386719 336.085938 371.109375 335.773438 372.257812 336.140625 C 373.476562 336.511719 372.625 337.734375 372.535156 338.195312 C 370.5 347.445312 366.058594 353.628906 361.171875 361.433594 C 354.511719 372.113281 347.648438 382.675781 341.484375 393.667969 C 339.839844 396.609375 338.359375 399.71875 336.785156 402.714844 C 336.566406 403.214844 335.363281 403.289062 335.230469 403.160156 Z M 335.195312 403.140625 " fill-opacity="1" fill-rule="nonzero"/><path fill="#d8a5ac" d="M 103.113281 345.003906 C 103.28125 344.171875 102.539062 343.96875 102.261719 343.394531 C 100.984375 340.730469 99.988281 337.734375 98.617188 335.070312 C 93.546875 325.316406 86.164062 317.046875 79.375 308.609375 C 74.933594 303.078125 68.644531 296.507812 66.960938 289.53125 C 66.8125 288.941406 66.71875 288.40625 67.402344 288.199219 C 68.382812 287.921875 69.699219 289.515625 70.289062 290.179688 C 75.914062 296.417969 81.242188 303.390625 86.480469 309.941406 C 93.324219 318.507812 101.429688 327.316406 104.425781 338.160156 C 104.648438 338.972656 103.945312 339.363281 104.039062 339.824219 L 105.296875 343.433594 C 104.722656 344.46875 104.539062 345.246094 103.132812 344.984375 Z M 103.113281 345.003906 " fill-opacity="1" fill-rule="nonzero"/><path fill="#d8a5ac" d="M 312.566406 401.808594 C 312.734375 400.976562 311.992188 400.773438 311.714844 400.199219 C 310.4375 397.535156 309.4375 394.535156 308.070312 391.871094 C 303 382.121094 295.617188 373.851562 288.828125 365.414062 C 284.386719 359.882812 278.09375 353.3125 276.410156 346.335938 C 276.261719 345.746094 276.171875 345.207031 276.855469 345.003906 C 277.835938 344.726562 279.148438 346.320312 279.742188 346.984375 C 285.367188 353.21875 290.695312 360.195312 295.933594 366.746094 C 302.777344 375.3125 310.882812 384.121094 313.878906 394.960938 C 314.101562 395.777344 313.398438 396.164062 313.492188 396.628906 L 314.75 400.234375 C 314.175781 401.273438 313.992188 402.050781 312.585938 401.789062 Z M 312.566406 401.808594 " fill-opacity="1" fill-rule="nonzero"/><path fill="#d8a5ac" d="M 86.035156 187.914062 C 86.644531 187.730469 87.832031 187.914062 88.015625 188.5625 C 88.21875 189.304688 87.609375 189.730469 87.554688 190.320312 C 87.347656 192.375 87.773438 194.558594 87.996094 196.554688 C 90.070312 215.078125 88.347656 233.820312 88.921875 252.914062 C 88.550781 254.339844 87.941406 257.449219 86.683594 254.671875 C 86.535156 249.640625 86.90625 244.589844 86.703125 239.558594 C 86.683594 239.058594 86.257812 238.761719 86.21875 238.261719 C 85.589844 225.382812 85.628906 212.46875 84.925781 199.628906 C 84.886719 199.128906 84.460938 198.8125 84.445312 198.332031 C 84.371094 196.316406 84.128906 191.632812 84.5 189.933594 C 84.59375 189.488281 85.609375 188.027344 86.035156 187.914062 Z M 86.035156 187.914062 " fill-opacity="1" fill-rule="nonzero"/><path fill="#d8a5ac" d="M 105.757812 349 L 107.109375 354.089844 C 108.71875 363.324219 108.738281 375.664062 107.515625 385.15625 C 107.332031 386.582031 107.925781 387.375 108 388.265625 C 108.074219 389.355469 108.128906 391.261719 108 392.28125 C 107.851562 393.425781 106.480469 393.796875 106.222656 393.148438 C 106.109375 392.890625 105.90625 392.410156 105.871094 392.261719 C 105.59375 391.019531 105.539062 388.28125 105.316406 386.507812 C 104.410156 379.382812 102.816406 373.554688 103.09375 366.0625 C 103.09375 365.5625 103.558594 365.246094 103.578125 364.765625 C 103.707031 360.304688 103.058594 354.773438 103.539062 350.535156 C 103.558594 350.332031 103.945312 349.058594 104 349 C 104.113281 348.890625 105.335938 349.058594 105.777344 349 Z M 105.757812 349 " fill-opacity="1" fill-rule="nonzero"/><path fill="#d8a5ac" d="M 315.230469 405.804688 L 316.582031 410.894531 C 318.191406 420.125 318.210938 432.46875 316.988281 441.960938 C 316.804688 443.382812 317.394531 444.179688 317.46875 445.066406 C 317.542969 446.160156 317.597656 448.066406 317.46875 449.082031 C 317.320312 450.230469 315.953125 450.601562 315.691406 449.953125 C 315.582031 449.695312 315.378906 449.214844 315.339844 449.066406 C 315.0625 447.824219 315.007812 445.085938 314.785156 443.308594 C 313.878906 436.1875 312.289062 430.359375 312.566406 422.863281 C 312.566406 422.363281 313.027344 422.050781 313.046875 421.570312 C 313.175781 417.109375 312.527344 411.578125 313.011719 407.339844 C 313.027344 407.136719 313.417969 405.859375 313.472656 405.804688 C 313.582031 405.695312 314.804688 405.859375 315.25 405.804688 Z M 315.230469 405.804688 " fill-opacity="1" fill-rule="nonzero"/><path fill="#d8a5ac" d="M 127.5 353.441406 C 127.5 353.441406 127.945312 354.753906 127.980469 354.960938 C 128.351562 358.199219 128.148438 364.027344 127.980469 367.410156 C 127.777344 371.554688 126.519531 375.886719 126.167969 379.808594 C 126.074219 380.863281 126.410156 382.453125 126.167969 383.34375 C 125.835938 384.488281 124.152344 385.230469 123.964844 382.9375 C 123.835938 381.34375 124.113281 379.605469 123.964844 378.03125 C 123.929688 377.53125 123.539062 377.238281 123.484375 376.738281 C 122.820312 370.113281 122.875 362.453125 123.984375 355.902344 C 124.097656 355.238281 124.855469 354.21875 124.835938 353.421875 C 125.429688 353.570312 125.6875 353.070312 125.964844 352.980469 C 126.039062 352.960938 127.40625 353.367188 127.464844 353.421875 Z M 127.5 353.441406 " fill-opacity="1" fill-rule="nonzero"/><path fill="#d8a5ac" d="M 336.972656 410.246094 C 336.972656 410.246094 337.414062 411.558594 337.453125 411.761719 C 337.824219 415 337.621094 420.828125 337.453125 424.214844 C 337.25 428.359375 335.992188 432.691406 335.640625 436.613281 C 335.546875 437.667969 335.878906 439.257812 335.640625 440.148438 C 335.304688 441.292969 333.621094 442.035156 333.4375 439.738281 C 333.269531 437.703125 333.269531 435.964844 333.050781 433.910156 C 332.308594 427.121094 332.347656 419.40625 333.492188 412.707031 C 333.605469 412.039062 334.363281 411.023438 334.34375 410.226562 C 334.9375 410.375 335.195312 409.875 335.472656 409.785156 C 335.546875 409.765625 336.917969 410.171875 336.972656 410.226562 Z M 336.972656 410.246094 " fill-opacity="1" fill-rule="nonzero"/><path fill="#d8a5ac" d="M 296.597656 275.765625 C 296.488281 275.894531 295.636719 275.765625 295.265625 275.542969 C 294.453125 275.027344 294.953125 273.398438 294.839844 272.417969 C 293.839844 264.164062 292.359375 255.894531 293.0625 247.605469 C 293.210938 245.847656 292.378906 241.796875 295.042969 242.035156 C 297.152344 242.222656 295.636719 244.386719 295.730469 244.867188 C 295.765625 245.070312 296.0625 245.21875 296.097656 245.421875 C 297.96875 254.453125 296.636719 264.054688 297.042969 273.34375 C 296.523438 273.878906 296.671875 275.675781 296.578125 275.765625 Z M 296.597656 275.765625 " fill-opacity="1" fill-rule="nonzero"/><path fill="#d8a5ac" d="M 429.28125 222.515625 C 428.210938 220.8125 430.410156 219.59375 432.1875 219.832031 C 432.648438 219.90625 432.890625 220.183594 433.113281 220.238281 C 433.890625 220.40625 434.832031 220.351562 435.519531 220.941406 C 435.628906 221.035156 436.777344 222.664062 436.792969 222.773438 C 437 223.496094 436.980469 229.824219 436.792969 230.695312 C 436.535156 231.914062 434.203125 233.765625 433.019531 234.023438 C 430.613281 234.542969 426.953125 233.507812 425.507812 231.414062 C 425.210938 230.972656 424.546875 229.398438 424.453125 228.917969 C 423.953125 226.011719 426.175781 222.292969 429.28125 222.535156 Z M 432.835938 230.507812 C 432.835938 230.507812 433.277344 229.175781 433.296875 228.972656 C 433.390625 228.175781 433.425781 225.179688 433.261719 224.550781 C 433.207031 224.347656 431.910156 223.050781 431.707031 222.996094 C 431.375 222.902344 429.800781 222.902344 429.746094 222.976562 C 429.652344 223.070312 429.410156 224.808594 429.226562 225.347656 C 428.914062 226.273438 428.078125 226.84375 428.429688 228.046875 C 428.523438 228.34375 428.949219 228.492188 429.078125 228.734375 C 429.28125 229.085938 429.265625 229.546875 429.320312 229.601562 C 429.375 229.65625 429.835938 229.640625 430.1875 229.84375 C 430.410156 229.972656 430.558594 230.398438 430.875 230.492188 C 431.1875 230.582031 432.761719 230.582031 432.835938 230.527344 Z M 432.835938 230.507812 " fill-opacity="1" fill-rule="nonzero"/><path fill="#d8a5ac" d="M 377.363281 310.386719 L 378.714844 315.03125 C 378.675781 320.988281 377.640625 326.632812 374.699219 331.90625 L 373.605469 333.015625 C 372.128906 331.609375 373.644531 329.796875 373.402344 327.890625 C 372.847656 323.558594 373.996094 318.953125 374.734375 314.605469 C 375.011719 313.011719 375.03125 312.921875 375.550781 311.421875 C 375.679688 311.035156 375.550781 310.460938 375.625 310.386719 C 375.714844 310.273438 376.976562 310.441406 377.402344 310.386719 Z M 377.363281 310.386719 " fill-opacity="1" fill-rule="nonzero"/><path fill="#d8a5ac" d="M 167.890625 253.582031 L 169.242188 258.226562 C 169.207031 264.183594 168.167969 269.828125 165.226562 275.101562 L 164.136719 276.210938 C 162.65625 274.804688 164.171875 272.992188 163.933594 271.085938 C 163.378906 266.757812 164.523438 262.148438 165.265625 257.800781 C 165.542969 256.210938 165.5625 256.117188 166.078125 254.617188 C 166.207031 254.230469 166.078125 253.65625 166.152344 253.582031 C 166.246094 253.472656 167.503906 253.636719 167.929688 253.582031 Z M 167.890625 253.582031 " fill-opacity="1" fill-rule="nonzero"/><path fill="#d8a5ac" d="M 64.960938 25.054688 C 64.960938 25.054688 65.515625 25.070312 65.832031 24.8125 C 66.199219 24.515625 66.609375 23.832031 66.976562 23.71875 C 67.347656 23.609375 67.792969 23.71875 68.21875 23.628906 C 69.382812 23.351562 69.492188 22.886719 70.882812 23.738281 C 73.453125 25.292969 74.5625 29.511719 73.15625 32.121094 C 72.121094 34.0625 70.011719 35.101562 67.808594 34.785156 C 67.441406 34.730469 65.8125 33.710938 65.589844 33.453125 C 65.070312 32.84375 64.128906 30.898438 64.035156 30.121094 C 63.941406 29.417969 63.941406 27.699219 64.089844 27.050781 C 64.109375 26.941406 64.886719 25.109375 64.960938 25.035156 Z M 68.496094 31.25 C 69.011719 31.289062 69.347656 31.324219 69.828125 31.03125 C 70.050781 30.898438 71.546875 28.921875 71.585938 28.773438 C 71.675781 28.4375 70.4375 26.050781 70.03125 25.941406 C 69.363281 25.757812 68.347656 26.015625 67.605469 25.941406 C 67.847656 26.867188 66.960938 27.515625 67.199219 28.347656 C 67.476562 29.382812 68.308594 30.214844 68.496094 31.269531 Z M 68.496094 31.25 " fill-opacity="1" fill-rule="nonzero"/><path fill="#d8a5ac" d="M 402.472656 183.066406 C 403.898438 182.753906 406.652344 183.605469 407.058594 185.046875 C 407.191406 185.527344 407.191406 188.507812 407.058594 188.988281 C 406.617188 190.523438 402.898438 190.914062 401.566406 190.542969 C 401.363281 190.488281 399.621094 188.746094 399.566406 188.542969 C 398.992188 186.527344 400.382812 183.511719 402.472656 183.066406 Z M 402.472656 183.066406 " fill-opacity="1" fill-rule="nonzero"/><path fill="#d8a5ac" d="M 376.273438 46.792969 C 377.050781 46.535156 378.160156 48.496094 378.269531 49.21875 C 378.417969 50.347656 378.34375 52.472656 378.269531 53.695312 C 378.234375 54.195312 377.824219 54.492188 377.789062 54.992188 C 377.695312 56.601562 377.9375 58.285156 377.789062 59.894531 C 377.753906 60.429688 377.789062 61.261719 377.121094 61.449219 C 374.957031 62.078125 375.714844 58.820312 375.585938 57.65625 C 375.402344 56.101562 374.382812 53.972656 374.21875 52.808594 C 373.941406 50.828125 374.105469 47.515625 376.253906 46.8125 Z M 376.273438 46.792969 " fill-opacity="1" fill-rule="nonzero"/><path fill="#d8a5ac" d="M 374.496094 71.660156 C 374.957031 71.53125 375.605469 71.585938 376.03125 71.863281 C 377.328125 72.660156 376.789062 73.769531 376.902344 74.992188 C 376.9375 75.472656 377.289062 75.714844 377.328125 75.9375 C 377.402344 76.363281 376.550781 79.523438 376.457031 80.300781 C 376.363281 81.078125 376.660156 82.246094 376.457031 82.96875 C 376.382812 83.261719 375.011719 84.078125 374.921875 84.078125 C 374.847656 84.078125 373.886719 83.132812 373.847656 82.949219 C 373.605469 82.132812 373.941406 80.785156 373.847656 79.859375 C 373.792969 79.339844 373.402344 79.042969 373.367188 78.5625 C 373.292969 77.417969 373.164062 73.640625 373.402344 72.808594 C 373.460938 72.625 374.328125 71.734375 374.496094 71.699219 Z M 374.496094 71.660156 " fill-opacity="1" fill-rule="nonzero"/><path fill="#d8a5ac" d="M 371.144531 64.980469 C 370.941406 65.648438 371.738281 66.019531 371.589844 66.5 C 371.089844 68.164062 368.261719 67.5 366.929688 67.609375 C 365.242188 67.757812 363.597656 68.351562 361.597656 68.089844 C 359.101562 67.757812 359.0625 65.039062 360.746094 64.554688 C 361.523438 64.335938 364.578125 64.445312 365.613281 64.519531 C 366.113281 64.554688 366.410156 64.964844 366.910156 65 C 368.277344 65.113281 369.757812 64.890625 371.144531 65 Z M 371.144531 64.980469 " fill-opacity="1" fill-rule="nonzero"/><path fill="#d8a5ac" d="M 381.582031 67.203125 C 380.398438 66.886719 380.988281 64.871094 382.0625 64.574219 C 382.433594 64.464844 382.878906 64.574219 383.304688 64.484375 C 384.578125 64.1875 385.484375 63.925781 386.929688 64.074219 C 387.429688 64.132812 387.742188 64.519531 388.222656 64.554688 C 389.296875 64.628906 393.832031 64 393.332031 65.648438 C 393.257812 65.890625 392.683594 66.109375 392.886719 66.757812 C 392.089844 66.796875 391.296875 66.703125 390.480469 66.796875 C 390.203125 66.832031 390.074219 67.203125 390 67.203125 C 388.039062 67.203125 383.023438 67.589844 381.5625 67.203125 Z M 381.582031 67.203125 " fill-opacity="1" fill-rule="nonzero"/><path fill="#d8a5ac" d="M 301.707031 352.996094 C 302.59375 352.738281 304.351562 354.515625 304.8125 355.199219 C 305.3125 355.941406 305.332031 356.828125 305.683594 357.4375 C 306.035156 358.050781 307.867188 359.492188 308.105469 360.34375 C 308.753906 362.601562 306.625 363.65625 305.941406 362.0625 C 305.832031 361.824219 305.941406 361.417969 305.703125 360.972656 C 304.851562 359.398438 300.058594 356.644531 300.613281 354.589844 C 300.6875 354.3125 301.425781 353.089844 301.707031 353.015625 Z M 301.707031 352.996094 " fill-opacity="1" fill-rule="nonzero"/><path fill="#d8a5ac" d="M 92.234375 296.195312 C 93.121094 295.933594 94.878906 297.710938 95.34375 298.394531 C 95.84375 299.136719 95.859375 300.023438 96.210938 300.636719 C 96.5625 301.246094 98.394531 302.6875 98.636719 303.539062 C 99.285156 305.796875 97.15625 306.851562 96.472656 305.261719 C 96.359375 305.019531 96.472656 304.613281 96.230469 304.167969 C 95.378906 302.597656 90.585938 299.839844 91.140625 297.785156 C 91.214844 297.507812 91.957031 296.285156 92.234375 296.210938 Z M 92.234375 296.195312 " fill-opacity="1" fill-rule="nonzero"/><path fill="#d8a5ac" d="M 137.511719 0.648438 C 139.492188 0.0742188 140.359375 2.21875 139.878906 3.902344 C 139.121094 4.753906 139.324219 8.328125 138.378906 8.621094 C 137.601562 8.863281 137.472656 7.976562 137.269531 7.511719 C 136.769531 6.347656 136.992188 5.828125 136.84375 4.828125 C 136.695312 3.832031 136.050781 3.035156 136.417969 1.757812 C 136.472656 1.574219 137.34375 0.683594 137.511719 0.648438 Z M 137.511719 0.648438 " fill-opacity="1" fill-rule="nonzero"/><path fill="#d8a5ac" d="M 127.351562 10.859375 C 128.683594 11.695312 130.480469 10.953125 131.699219 11.304688 C 132.035156 11.398438 132.976562 12.398438 132.828125 12.824219 C 132.273438 14.582031 129.386719 13.507812 128.167969 14.300781 C 127.09375 13.691406 123.855469 13.859375 124.390625 11.953125 C 124.6875 10.917969 126.6875 11.601562 127.335938 10.878906 Z M 127.351562 10.859375 " fill-opacity="1" fill-rule="nonzero"/><path fill="#d8a5ac" d="M 149.261719 13.0625 C 149.261719 13.0625 149.316406 14.765625 149.261719 14.839844 C 149.203125 14.894531 147.925781 15.285156 147.722656 15.300781 C 146.429688 15.449219 141.671875 15.523438 141.265625 14.171875 C 140.898438 12.96875 143.429688 12.527344 144.152344 12.265625 C 145.1875 12.96875 146.539062 12.472656 147.722656 12.601562 C 147.925781 12.617188 149.203125 13.007812 149.261719 13.0625 Z M 149.261719 13.0625 " fill-opacity="1" fill-rule="nonzero"/><path fill="#d8a5ac" d="M 87.144531 5.53125 C 87.144531 5.53125 88.792969 4.996094 89.105469 5.089844 C 89.625 5.234375 91.289062 7.382812 91.105469 7.917969 C 91.011719 8.214844 90.292969 9.417969 89.996094 9.492188 C 89.050781 9.769531 86.941406 8.769531 86.703125 7.9375 C 86.570312 7.492188 86.960938 5.699219 87.144531 5.53125 Z M 87.144531 5.53125 " fill-opacity="1" fill-rule="nonzero"/><path fill="#d8a5ac" d="M 138.601562 21.925781 C 138.601562 21.925781 137.714844 21.816406 137.492188 22.371094 C 136.714844 22.351562 136.457031 18.984375 136.328125 18.207031 C 136.289062 18.003906 135.976562 17.78125 135.917969 17.28125 C 135.753906 15.820312 137.046875 15.210938 138.15625 15.929688 C 138.378906 16.078125 138.972656 17.503906 139.027344 17.761719 C 139.121094 18.1875 138.621094 18.503906 138.582031 19.019531 C 138.546875 19.632812 138.714844 21.777344 138.582031 21.925781 Z M 138.601562 21.925781 " fill-opacity="1" fill-rule="nonzero"/><path fill="#d8a5ac" d="M 22.773438 81.394531 C 20.277344 81.632812 20.90625 80.949219 20.574219 79.378906 C 20.425781 78.730469 20.035156 78.433594 20.109375 77.621094 C 20.257812 75.804688 22.867188 76.433594 23.21875 77.65625 C 23.347656 78.082031 22.753906 78.433594 22.753906 78.953125 C 22.753906 79.394531 23.144531 79.671875 23.144531 79.839844 C 23.144531 80.023438 22.515625 80.746094 22.792969 81.394531 Z M 22.773438 81.394531 " fill-opacity="1" fill-rule="nonzero"/><path fill="#d8a5ac" d="M 22.792969 91.609375 C 22.347656 92.050781 20.777344 91.089844 20.609375 90.480469 C 20.425781 89.792969 20.40625 87.425781 21.257812 87.1875 C 23.050781 86.667969 22.71875 88.683594 22.792969 89.628906 C 22.828125 89.996094 23.035156 90.21875 23.050781 90.292969 C 23.050781 90.589844 22.867188 91.570312 22.8125 91.609375 Z M 22.792969 91.609375 " fill-opacity="1" fill-rule="nonzero"/><path fill="#d8a5ac" d="M 18.796875 84.058594 C 18.960938 84.207031 18.425781 86.1875 18.351562 86.277344 C 18.222656 86.410156 15.058594 86.519531 14.800781 85.613281 C 14.597656 84.929688 16.28125 83.800781 16.835938 83.652344 C 17.167969 83.558594 18.722656 84.003906 18.796875 84.078125 Z M 18.796875 84.058594 " fill-opacity="1" fill-rule="nonzero"/><path fill="#d8a5ac" d="M 24.125 86.277344 C 24.125 86.277344 24.050781 85.003906 24.125 84.726562 C 24.382812 83.761719 27.34375 83.726562 27.660156 84.726562 C 28.027344 85.910156 24.53125 86.703125 24.105469 86.277344 Z M 24.125 86.277344 " fill-opacity="1" fill-rule="nonzero"/></svg>