<svg xmlns="http://www.w3.org/2000/svg" xmlns:xlink="http://www.w3.org/1999/xlink" width="616" zoomAndPan="magnify" viewBox="0 0 462 767.999994" height="1024" preserveAspectRatio="xMidYMid meet" version="1.0"><defs><clipPath id="577b98bba6"><path d="M 2 19.269531 L 460 19.269531 L 460 747 L 2 747 Z M 2 19.269531 " clip-rule="nonzero"/></clipPath></defs><g clip-path="url(#577b98bba6)"><path fill="#d8a5ac" d="M 450.128906 650.527344 C 449.433594 650.167969 450.070312 647.730469 446.652344 649.964844 L 443.9375 599.734375 C 444.203125 596.402344 448.324219 597.871094 449.785156 595.230469 C 451.023438 593.003906 450.335938 590.816406 450.972656 589.726562 C 451.570312 588.710938 455.082031 588.96875 454.433594 585.417969 C 453.6875 581.328125 433.15625 563.15625 428.675781 558.789062 C 423.441406 553.6875 418.605469 548.679688 413.351562 543.445312 C 412.035156 542.136719 409.554688 539.769531 407.746094 539.273438 L 409.246094 537.253906 L 414.394531 542.363281 L 416.613281 540.828125 L 410.914062 436.394531 C 410.308594 435.5 391.503906 434.386719 390.433594 438.566406 L 391.878906 518.253906 L 394.40625 523.910156 C 392.640625 524.375 392.355469 523.203125 391.324219 522.394531 C 371.375 506.691406 353.898438 482.984375 333.738281 467.542969 L 300.828125 441.675781 C 301.460938 429.773438 301.972656 417.621094 302.273438 405.582031 C 302.332031 403.347656 301.078125 399.289062 301.273438 399.019531 C 301.871094 398.191406 305.558594 398.621094 305.292969 394.398438 C 305.046875 390.4375 298.03125 383.191406 294.042969 382.445312 L 295.335938 276.441406 C 296.320312 273.847656 301.527344 275.339844 301.199219 272.378906 C 300.707031 269.664062 284.550781 248.6875 282.015625 247.222656 C 279.007812 245.480469 272.050781 247.09375 268.40625 247.253906 C 268.765625 244.972656 271.6875 245.875 272.617188 244.539062 C 273.621094 243.09375 271.960938 237.664062 273.289062 235.25 C 274.589844 232.886719 276.628906 232.796875 277.675781 231.4375 C 279.695312 228.800781 279.382812 203.816406 278.621094 199.640625 C 277.402344 192.941406 267.566406 198.058594 264.808594 195.058594 L 251.746094 108.183594 C 245.289062 106.117188 237.785156 105.96875 231.636719 109.039062 C 232.574219 111.984375 231.121094 114.34375 234.636719 115.671875 L 219.242188 195.523438 C 218.367188 200.613281 209.179688 196.113281 206.863281 199.785156 C 205.84375 201.398438 204.8125 231.675781 205.929688 232.910156 L 210.011719 231.882812 L 211.039062 248.289062 L 247.996094 246.542969 L 250.992188 248.273438 C 227.34375 248.628906 203.613281 248.953125 180.339844 252.425781 C 179.085938 258.4375 187.039062 258.5625 187.835938 262.765625 L 188.386719 369.5 C 184 373.292969 174.117188 377.980469 182.421875 383.238281 L 181.171875 448.4375 C 176.160156 453.371094 170.765625 458.113281 166.058594 463.265625 C 141.351562 490.320312 117.714844 517.796875 92.886719 546.097656 C 91.867188 547.257812 89.378906 547.878906 88.582031 549.566406 C 87.3125 554.984375 92.359375 552.777344 94.40625 555.109375 C 95.632812 556.507812 93.789062 559.742188 97.257812 562.429688 C 99.21875 563.945312 101.109375 563.65625 103.042969 564.851562 L 103.207031 571.84375 C 101.523438 573.53125 98.007812 576.039062 96.675781 577.550781 C 68.765625 609.183594 38.753906 638.21875 10.242188 668.847656 C 8.949219 670.238281 2.996094 676.542969 2.597656 677.652344 C 0.0976562 684.636719 15.199219 685.273438 19.441406 685.855469 L 21.429688 743.796875 L 23.296875 745.015625 C 79.296875 746.726562 135.257812 745.34375 191.171875 745.402344 C 246.960938 745.457031 303.199219 747.851562 359.121094 746.296875 C 371.777344 745.945312 385.59375 743.1875 397.964844 743.222656 C 409.476562 743.257812 438.992188 748.726562 448.386719 745.453125 C 451.441406 744.390625 453.371094 741.332031 456.929688 741.566406 L 458.164062 739.84375 L 454.828125 663.792969 L 458.746094 663.058594 C 461.890625 656.457031 455.199219 653.128906 450.125 650.511719 Z M 237.71875 240.390625 C 237.113281 235.371094 237.703125 229.679688 237.03125 224.441406 C 236.800781 222.609375 237.398438 223.390625 238.738281 223.4375 L 239.769531 241.90625 C 238.535156 243.527344 237.898438 241.917969 237.71875 240.394531 Z M 246.054688 221.640625 L 244.886719 241.988281 L 241.828125 241.988281 C 242.699219 238.652344 241.257812 220.613281 239.085938 219.308594 C 230.441406 214.113281 230.355469 229.523438 230.085938 234.300781 C 230.042969 235.046875 231.429688 243.589844 228.484375 241.492188 L 225.609375 220.25 L 235.675781 190.703125 C 236.984375 191.316406 238.507812 194.589844 239.144531 195.941406 C 242.921875 203.964844 244.367188 213.6875 248.980469 220.964844 L 246.050781 221.644531 Z M 319.761719 459.433594 L 414.136719 551.75 L 404.242188 545.210938 C 380.003906 519.457031 352.585938 494.609375 328.222656 471.417969 C 326.910156 470.167969 318.070312 461.605469 317.734375 460.945312 C 316.96875 459.4375 318.511719 459.039062 319.761719 459.433594 Z M 343.960938 498.863281 C 354.1875 509.027344 382.445312 534.464844 387.402344 545.363281 C 389.042969 548.96875 388.496094 552.117188 392.597656 555.363281 L 390.199219 557.15625 L 390.535156 667.6875 L 385.375 664.148438 L 337.164062 618.742188 L 335.140625 603.054688 L 332.140625 604.179688 C 332.808594 606.59375 333.164062 609.199219 333.128906 611.734375 C 333.113281 612.890625 333.75 614.605469 332.085938 614.332031 C 331.863281 610.949219 327.664062 610.242188 326.21875 608.917969 C 325.496094 608.257812 325.25 606.847656 324.441406 606.09375 C 315.625 597.835938 306.71875 589.636719 297.980469 581.257812 C 296.992188 578.511719 296.421875 575.734375 296.136719 572.824219 C 292.953125 540.53125 295.085938 503.152344 294.136719 470.113281 C 293.933594 463.140625 292.96875 456.195312 293.109375 449.152344 C 294.449219 449.304688 294.703125 450.960938 295.558594 451.828125 C 311.523438 467.929688 327.832031 482.828125 343.953125 498.859375 Z M 298.179688 397.527344 L 297.199219 438.898438 L 291.554688 435.0625 C 286.316406 437.742188 289.3125 439.992188 289.097656 443.507812 C 288.582031 451.730469 287.765625 459.777344 288.144531 468.035156 C 289.960938 503.421875 291.3125 538.914062 291.558594 574.335938 L 285.195312 569.921875 C 283.265625 567.636719 284.976562 558.722656 284.9375 555.378906 C 284.40625 506.90625 284.753906 459.074219 284.460938 410.675781 C 284.410156 402.460938 284.035156 393.6875 282.847656 385.550781 C 283.992188 384.832031 286.570312 387.296875 287.546875 388.046875 C 290.863281 390.601562 294.492188 394.996094 298.175781 397.519531 Z M 279.824219 269.03125 C 279.8125 266.820312 277.875 264.238281 280.78125 263.460938 C 280.691406 264.027344 280.765625 264.660156 281.191406 265.070312 C 282.644531 266.480469 290.992188 276.074219 291.132812 277.242188 C 291.757812 282.417969 290.078125 291.027344 290 296.730469 C 289.640625 322.417969 289.59375 348.332031 289.738281 374.023438 C 289.746094 375.617188 290.363281 376.105469 288.492188 377.316406 L 278.910156 367.640625 C 279.234375 334.882812 279.96875 302.035156 279.820312 269.03125 Z M 275.640625 258.332031 L 273.492188 366.96875 L 192.554688 370.160156 L 191.578125 262.921875 L 275.640625 258.328125 Z M 186.464844 383.980469 L 279.90625 381.453125 L 279.378906 564.0625 L 236.066406 523.054688 C 218.597656 514.382812 202.976562 504.570312 185.515625 495.867188 C 183.839844 494.207031 183.953125 485.375 183.917969 482.5 C 183.542969 449.980469 186.132812 416.503906 186.464844 383.980469 Z M 107.160156 542.78125 C 109.113281 540.027344 113.394531 537.246094 115.378906 535.042969 C 132.332031 516.195312 149.707031 496.847656 167.425781 477.8125 C 170.25 474.777344 173.675781 470.917969 175.460938 468.886719 C 176.46875 467.734375 179.40625 466.867188 179.28125 464.554688 C 180.664062 464.738281 181.117188 465.957031 181.304688 467.1875 C 181.585938 469.023438 180.503906 490.414062 180.128906 491.574219 C 177.457031 493.863281 174.941406 496.324219 172.539062 498.882812 C 152.824219 519.871094 132.589844 540.34375 113.1875 561.574219 L 106.445312 567.136719 C 107.6875 561.316406 103.820312 547.492188 107.167969 542.777344 Z M 212.683594 740.652344 L 184.453125 740.558594 C 183.441406 734.515625 185.824219 723.875 184.453125 718.5 C 184.367188 718.15625 183.058594 716.929688 182.414062 716.960938 L 183.34375 740.480469 L 152.648438 741.105469 L 151.703125 684.203125 L 181.351562 682.0625 C 181.34375 684.679688 182.28125 687.125 182.4375 689.730469 C 182.773438 695.363281 180.210938 703.511719 184.441406 707.726562 L 183.527344 683.1875 L 213.707031 684.035156 L 212.683594 740.648438 Z M 210.574219 681.007812 C 190.742188 680.785156 171.246094 679.621094 151.570312 681.023438 C 147.519531 677.578125 163.753906 676.585938 164.773438 676.511719 C 180.710938 675.347656 196.988281 678.699219 212.921875 677.125 L 214.636719 680.03125 C 215.632812 683.027344 211.875 681.023438 210.574219 681.007812 Z M 183.699219 659.835938 L 186.425781 658.460938 L 187.257812 661.328125 C 183.8125 662.722656 180.988281 669.042969 178.515625 670.78125 C 177.222656 671.6875 175.820312 671.972656 175.164062 670.238281 C 174.738281 669.117188 183.070312 662.058594 183.699219 659.835938 Z M 351.097656 738.003906 C 351.011719 739.207031 350.492188 740.246094 349.5625 740.96875 L 220.773438 740.96875 L 219.480469 740.027344 C 220.296875 727.644531 218.78125 715.070312 218.574219 702.636719 C 218.285156 685.558594 223.863281 671.910156 206.863281 660.082031 C 190.847656 648.9375 173.988281 650.425781 158.824219 662.167969 C 154.992188 665.132812 152.410156 670.058594 148.769531 673.019531 C 146.796875 695.65625 151.578125 718.910156 149.5 741.59375 L 25.402344 741.59375 L 23.832031 668.691406 L 58.898438 633.480469 C 96.992188 590.011719 140.265625 551.78125 177.835938 509.292969 C 178.527344 508.507812 178.414062 506.925781 179.242188 506.082031 L 184.550781 512.605469 L 186.382812 511.761719 C 232.171875 561.554688 283.304688 608.9375 331.722656 656.761719 C 338.488281 663.445312 344.648438 671.046875 352.097656 676.875 C 350.15625 689.820312 350.140625 703.28125 350.089844 716.425781 C 350.066406 722.957031 351.523438 731.839844 351.089844 738.003906 Z M 355.632812 741.4375 L 354.589844 680.664062 C 354.605469 679.628906 356.554688 680.023438 357.433594 680.441406 C 357.722656 680.574219 359.457031 683.65625 360.515625 684.125 C 367.53125 687.214844 380.621094 689.980469 388.796875 690.875 C 389.875 690.992188 391.210938 690.175781 392.402344 690.347656 L 392.40625 739.390625 C 390.671875 740.722656 360.871094 738.089844 355.636719 741.4375 Z M 369.230469 677.222656 C 348.148438 659.925781 328.757812 639.058594 310.363281 618.628906 C 307.8125 620.238281 308.617188 617.910156 307.03125 616.328125 C 270.523438 579.878906 233.8125 543.875 197.207031 507.636719 C 196.15625 504.882812 200.050781 507.886719 200.378906 508.085938 C 208.621094 513.097656 217.84375 519.054688 226.519531 523.464844 C 231.601562 526.050781 229.316406 523.914062 234.09375 528.230469 C 284.207031 573.503906 331.714844 623.734375 383.070312 667.988281 L 395.675781 682.054688 L 369.230469 677.226562 Z M 401.320312 741.542969 C 398.800781 741.636719 400.804688 739.128906 400.804688 738.996094 C 400.804688 735.234375 400.070312 726.496094 400.804688 723.605469 C 400.90625 723.214844 402.605469 721.757812 402.847656 722.066406 C 403.269531 724.898438 405.476562 741.382812 401.320312 741.539062 Z M 413.117188 740.511719 C 412.675781 739.988281 413.191406 727.570312 413.449219 726.84375 C 413.847656 725.707031 414.96875 724.410156 416.179688 724.121094 L 417.160156 740.023438 C 416.667969 741.933594 413.414062 740.867188 413.117188 740.515625 Z M 430.542969 740.539062 C 429.128906 740.632812 428.648438 741.417969 428.828125 739.511719 C 429.238281 735.152344 427.921875 729.902344 430.042969 726.175781 C 431.867188 730.699219 431.15625 735.824219 430.542969 740.535156 Z M 434.101562 740.613281 C 433.046875 734.507812 435.757812 726.6875 429.925781 722.117188 C 422.25 722.589844 426.453125 740.652344 426.453125 740.652344 L 420.546875 740.644531 C 422.003906 738.011719 419.136719 722.308594 417.40625 721.183594 C 415.222656 719.757812 413.914062 722.738281 412.925781 723.875 C 412.449219 724.421875 411.25 724.152344 411.25 724.238281 L 411.25 740.652344 L 406.53125 739.636719 C 405.683594 733.148438 407.359375 726.191406 403.855469 720.316406 C 396.621094 715.972656 399.183594 734.691406 398.847656 738.101562 C 398.6875 739.695312 398.785156 741.234375 396.796875 741.679688 L 396.796875 689.75 C 396.796875 689.75 408.09375 694.390625 408.621094 686.652344 C 408.792969 684.148438 397.847656 676.566406 395.855469 674.125 L 395.855469 556.890625 L 434.914062 587.671875 C 436.230469 590.132812 437.972656 590.738281 440.8125 590.757812 C 439.875 592.890625 439.253906 595.078125 439.195312 597.417969 C 438.683594 616.519531 440.308594 639.535156 440.964844 658.878906 C 441.886719 685.972656 443.703125 712.992188 444.621094 740.03125 C 444.488281 742.242188 434.480469 741.226562 434.101562 740.613281 Z M 449.132812 736.054688 C 447.542969 718.378906 448.757812 698.511719 448.03125 680.472656 C 447.789062 674.449219 446.050781 667.90625 446.972656 661.535156 C 447.097656 661.367188 450.171875 662.976562 450.601562 663.621094 C 451.148438 664.441406 451.257812 677.484375 450.71875 678.738281 C 447.300781 686.71875 451.328125 694.375 452.636719 703.085938 C 454.097656 712.808594 451.953125 726.011719 453.945312 736.121094 C 452.53125 739.535156 449.582031 741.070312 449.128906 736.054688 Z M 241.554688 70.875 C 241.554688 68.769531 239.492188 67.207031 239.707031 65.039062 C 239.746094 64.667969 243.304688 63.839844 242.910156 59.78125 L 239.777344 56.726562 C 242.933594 53.777344 245.683594 47.878906 240.792969 45.449219 C 246.140625 40.78125 242.328125 32.027344 243.46875 25.3125 C 243.796875 23.371094 244.207031 20.835938 245.410156 19.269531 L 247.84375 82.195312 L 246.4375 83.636719 L 239.777344 83.898438 C 238.742188 82.828125 241.554688 72.8125 241.554688 70.875 Z M 238.378906 94.675781 C 238.367188 93.523438 236.789062 92.0625 236.671875 90.492188 C 236.15625 83.371094 254.128906 84.746094 250.742188 90.847656 C 250.640625 91.03125 249.125 91.003906 248.972656 91.769531 C 248.617188 93.542969 250.375 104.78125 250.023438 105.449219 C 247.84375 103.5625 238.125 105.445312 237.6875 105.003906 C 234.382812 101.695312 238.394531 96.6875 238.378906 94.675781 Z M 409.011719 433.757812 L 393.625 432.730469 C 394.636719 428.269531 408.054688 429.355469 408.933594 430.78125 L 409.011719 433.761719 Z M 209.796875 576.871094 C 209.875 577.746094 208.371094 579.929688 207.292969 580.308594 C 202.660156 581.933594 187.371094 579.261719 184.976562 582.496094 L 183.941406 634.351562 C 184.074219 637.019531 180.132812 639.140625 178.261719 637.902344 C 175.628906 636.15625 180.304688 584.777344 178.6875 582.503906 C 176.90625 580.007812 169.722656 581.660156 166.367188 581.542969 C 161.761719 581.375 157.09375 581.390625 152.582031 580.457031 L 154.371094 575.308594 L 178.808594 574.363281 C 179.167969 571.042969 175.539062 548.199219 181.804688 549.710938 C 186.496094 550.851562 183.015625 572.027344 185.851562 574.398438 C 190.019531 576.355469 209.246094 570.804688 209.789062 576.875 Z M 129.753906 665.871094 C 136.757812 672.933594 123.484375 682.117188 120.96875 673.105469 C 119.230469 666.886719 126.695312 662.789062 129.753906 665.871094 Z M 240.589844 665.886719 C 243.113281 668.226562 239.949219 673.511719 238.566406 675.714844 C 235.558594 675.371094 232.734375 675.988281 231.289062 672.539062 C 228.539062 665.992188 235.957031 661.59375 240.589844 665.886719 Z M 334.476562 586.722656 C 335.457031 586.507812 335.792969 584.757812 335.9375 583.878906 C 336.550781 580.15625 335.472656 549.339844 334.636719 546.191406 C 333.835938 543.179688 331.476562 541.09375 329.398438 539.101562 C 328.164062 537.917969 328.363281 535.605469 325.902344 536.894531 C 325.574219 537.066406 321.089844 541.902344 320.832031 542.320312 C 316.464844 549.339844 316.226562 565.542969 316.0625 574.039062 C 315.980469 578.226562 316.550781 582.488281 316.703125 586.6875 L 334.472656 586.726562 Z M 320.832031 564.613281 L 330.023438 552.789062 C 330.457031 556.046875 330.558594 561.304688 329.785156 564.328125 C 329.042969 567.222656 326.316406 568.066406 325.265625 569.613281 C 324.839844 570.238281 324.933594 571.1875 324.527344 571.847656 L 319.785156 576.375 Z M 342.507812 586.453125 C 346.257812 587.398438 357.71875 588.34375 359.34375 584.105469 C 357.71875 571.859375 362.445312 554.851562 356.875 543.878906 C 355.480469 541.128906 352.933594 534.953125 349.511719 537.066406 C 349.171875 537.277344 344.613281 542.9375 344.449219 543.300781 C 341.433594 549.886719 340.933594 574.207031 341.691406 582.410156 C 341.785156 583.394531 341.835938 586 342.507812 586.453125 Z M 345.996094 560.015625 C 346.960938 557.550781 351.425781 552.820312 353.382812 550.050781 C 353.988281 549.195312 353.175781 548.082031 355.667969 548.679688 C 356.050781 549.179688 355.132812 559.867188 354.574219 561.207031 C 354.347656 561.757812 348.074219 570.109375 347.449219 570.714844 C 346.457031 571.671875 346.152344 572.6875 344.390625 572.261719 C 346.007812 568.28125 344.359375 564.171875 345.992188 560.011719 Z M 249.023438 361.457031 C 250.867188 360.371094 250.828125 356.167969 250.925781 354.121094 C 251.410156 343.75 253.128906 318.210938 249.402344 309.730469 C 246.730469 303.644531 238.429688 292.714844 230.816406 296.023438 C 230.027344 296.371094 223.230469 303.09375 222.367188 304.265625 C 219.34375 308.367188 219.632812 309.613281 218.144531 313.960938 C 217.882812 314.734375 216.601562 314.789062 216.511719 315.03125 C 214.992188 319.097656 214.636719 333.355469 214.511719 338.480469 C 214.308594 346.542969 215.367188 354.898438 215.640625 363.058594 L 249.019531 361.453125 Z M 225.949219 318.851562 C 231.734375 317.773438 238.984375 318.152344 244.898438 317.839844 C 244.984375 319.347656 241.226562 319.640625 240.164062 319.757812 C 234.390625 320.390625 228.132812 319.847656 222.335938 320.894531 C 222.75 318.878906 224.441406 319.128906 225.949219 318.851562 Z M 224.859375 323.949219 C 231.332031 323.164062 238.472656 323.84375 244.890625 322.960938 C 245.320312 325.8125 244.410156 324.886719 242.355469 325.011719 C 235.320312 325.441406 228.273438 324.980469 221.308594 326.023438 C 221.707031 324.136719 223.324219 324.136719 224.855469 323.945312 Z M 413.867188 595.011719 C 415.855469 621.515625 415.082031 648.125 415.066406 674.753906 C 409.035156 678.441406 409.238281 663.421875 409 659.042969 C 408.242188 645.019531 407.636719 626.308594 408.363281 612.421875 C 408.5 609.871094 409.386719 590.847656 412.601562 590.761719 C 414.867188 592.125 413.746094 593.378906 413.867188 595.011719 Z M 404.9375 658.003906 C 404.789062 661.507812 404.585938 668.144531 403.855469 671.257812 C 402.976562 675 401.734375 672.945312 398.753906 672.773438 C 399.304688 671.285156 399.632812 669.707031 399.609375 668.101562 C 399.304688 647.351562 398.847656 626.59375 398.765625 605.695312 C 398.746094 600.332031 394.714844 584.707031 402.851562 584.585938 C 402.589844 608.828125 405.96875 633.777344 404.9375 658 Z M 426.421875 597.984375 L 429.492188 598 L 429.480469 678.078125 L 426.035156 678.125 C 424.3125 677.71875 423.957031 668.40625 423.804688 666.210938 C 422.847656 652.808594 423.777344 633.816406 424.355469 619.992188 C 424.664062 612.671875 425.535156 605.292969 426.425781 597.984375 Z M 281.238281 326.550781 C 281.320312 322.910156 281.890625 308.304688 283.074219 306.253906 C 283.835938 304.933594 284.160156 304.136719 285.921875 304.496094 C 286.808594 317.28125 287.617188 330.128906 287.503906 343 C 287.441406 350 287.855469 363.632812 286.902344 369.59375 C 286.703125 370.84375 286.339844 371.992188 284.925781 372.207031 L 281.34375 367.246094 C 282.199219 353.78125 280.921875 340.039062 281.242188 326.550781 Z M 281.238281 326.550781 " fill-opacity="1" fill-rule="nonzero"/></g></svg>