<svg xmlns="http://www.w3.org/2000/svg" xmlns:xlink="http://www.w3.org/1999/xlink" width="616" zoomAndPan="magnify" viewBox="0 0 462 613.499987" height="818" preserveAspectRatio="xMidYMid meet" version="1.0"><defs><clipPath id="c9bdd0a789"><path d="M 0.1875 0 L 461.8125 0 L 461.8125 586.773438 L 0.1875 586.773438 Z M 0.1875 0 " clip-rule="nonzero"/></clipPath></defs><g clip-path="url(#c9bdd0a789)"><path fill="#d8a5ac" d="M 58.230469 212.371094 C 55.617188 210.410156 52.675781 209.429688 49.738281 208.558594 C 45.488281 207.363281 41.242188 205.945312 36.667969 206.164062 C 35.90625 206.164062 35.144531 205.945312 34.492188 205.074219 C 36.234375 204.09375 37.976562 204.203125 39.71875 204.09375 C 46.6875 204.09375 52.132812 200.9375 57.035156 196.363281 C 62.152344 191.570312 65.855469 185.582031 69.339844 179.59375 C 72.714844 173.710938 75.65625 167.613281 77.832031 161.1875 C 78.050781 160.425781 78.378906 159.664062 78.8125 158.902344 C 79.683594 157.484375 80.882812 157.59375 81.972656 158.902344 C 83.496094 160.863281 83.824219 163.257812 84.367188 165.542969 C 85.566406 170.878906 87.523438 176 89.703125 181.007812 C 89.921875 181.554688 90.140625 182.207031 90.683594 182.53125 C 92.425781 181.335938 93.734375 179.703125 95.257812 178.285156 C 102.117188 172.1875 109.742188 167.179688 117.800781 162.605469 C 128.796875 156.398438 140.449219 151.386719 152.429688 147.359375 C 162.882812 143.875 173.554688 140.933594 184.445312 138.753906 C 186.078125 138.429688 186.839844 138.429688 188.148438 137.558594 C 189.453125 136.6875 190.761719 134.289062 191.742188 132.984375 C 194.789062 128.84375 198.492188 125.25 202.523438 122.09375 C 205.789062 119.480469 209.492188 117.410156 213.738281 116.757812 C 215.15625 116.539062 216.570312 116.429688 217.988281 116.429688 C 221.472656 116.429688 224.957031 116.105469 228.441406 116.214844 C 228.660156 116.214844 229.3125 101.292969 228.984375 93.996094 C 228.660156 85.066406 228.550781 76.246094 228.660156 67.316406 C 228.660156 61.546875 228.875 55.882812 229.203125 50.113281 C 229.53125 44.777344 229.746094 39.4375 229.964844 34.210938 C 230.292969 27.894531 230.726562 21.578125 231.164062 15.265625 C 231.382812 11.671875 232.035156 7.75 232.253906 6.660156 C 232.46875 5.570312 233.125 1.976562 233.558594 0.5625 C 233.558594 0.234375 235.191406 0.125 235.628906 0.125 C 236.0625 0.125 238.570312 0.5625 238.675781 0.890625 C 239.875 6.660156 239.222656 12.105469 238.785156 18.09375 C 238.351562 23.214844 238.242188 28.332031 237.914062 33.449219 C 237.480469 40.203125 236.824219 46.953125 236.390625 53.597656 C 235.847656 61.4375 235.191406 69.277344 234.976562 77.117188 C 234.867188 82.453125 234.976562 87.789062 234.539062 93.125 C 234.210938 98.898438 233.667969 114.253906 233.558594 116.214844 C 235.738281 116.320312 238.132812 116.320312 240.636719 116.648438 C 244.882812 117.195312 249.132812 116.648438 253.269531 117.300781 C 254.902344 117.628906 256.644531 117.957031 258.277344 118.28125 C 262.308594 119.152344 265.574219 121.113281 268.296875 124.273438 C 270.910156 127.320312 273.851562 129.933594 275.8125 133.527344 C 276.246094 134.289062 276.683594 135.054688 276.574219 136.03125 C 276.464844 137.011719 276.792969 137.339844 277.773438 137.558594 C 284.199219 138.863281 290.1875 141.042969 296.285156 143.546875 C 298.679688 144.527344 301.292969 144.960938 303.800781 145.617188 C 312.402344 147.902344 320.570312 151.496094 328.628906 155.089844 C 348.992188 164.238281 367.289062 176.652344 383.949219 191.460938 C 401.480469 207.035156 416.402344 224.675781 428.269531 244.824219 C 437.746094 260.941406 445.476562 277.710938 450.378906 295.789062 C 451.359375 299.273438 452.121094 302.757812 452.773438 306.351562 C 453.425781 310.273438 454.734375 313.972656 455.277344 318.003906 C 455.824219 322.03125 456.367188 326.0625 456.800781 330.199219 C 457.566406 336.953125 458.109375 343.703125 458.328125 350.347656 C 458.542969 357.207031 458.652344 364.175781 458.21875 371.039062 C 458 374.195312 457.890625 377.460938 457.671875 380.621094 C 456.695312 393.144531 454.953125 405.558594 452.011719 417.753906 C 448.308594 433.109375 443.625 448.027344 437.089844 462.402344 C 436.003906 464.800781 434.914062 467.304688 433.714844 469.589844 C 433.28125 470.355469 433.496094 470.789062 434.152344 471.226562 C 440.140625 475.582031 446.785156 478.195312 454.1875 478.957031 C 456.257812 479.175781 458.21875 479.390625 460.179688 480.046875 C 460.613281 480.15625 460.941406 480.261719 461.265625 480.480469 C 461.8125 480.917969 461.703125 481.460938 461.050781 481.789062 C 460.722656 481.898438 460.289062 482.003906 459.851562 482.113281 C 448.308594 484.945312 438.179688 490.28125 429.359375 498.230469 C 421.519531 505.417969 415.421875 513.804688 412.042969 523.933594 C 410.738281 527.742188 408.996094 531.335938 408.015625 535.257812 C 408.015625 535.585938 407.6875 535.910156 407.363281 535.910156 C 406.816406 535.910156 406.816406 535.476562 406.707031 535.039062 C 406.382812 534.058594 406.492188 532.96875 406.492188 531.992188 C 406.492188 526.761719 403.550781 518.269531 400.175781 514.132812 C 398.976562 515.4375 397.886719 516.746094 396.691406 518.050781 C 393.96875 521.210938 390.699219 523.933594 387.871094 526.871094 C 381.878906 532.863281 374.800781 537.433594 368.160156 542.554688 C 351.171875 555.839844 332.113281 565.203125 312.183594 572.828125 C 300.421875 577.292969 288.226562 580.015625 275.921875 582.300781 C 265.792969 584.152344 255.664062 585.351562 245.539062 586.332031 C 240.855469 586.765625 236.171875 586.984375 231.382812 586.984375 C 226.371094 586.984375 221.363281 586.222656 216.242188 585.894531 C 196.96875 584.589844 178.675781 579.144531 160.378906 573.480469 C 159.179688 573.152344 158.09375 572.71875 156.894531 572.28125 C 156.132812 572.066406 155.476562 571.519531 154.714844 572.5 C 154.28125 573.046875 152.972656 572.71875 152.648438 571.847656 C 152.210938 570.539062 151.121094 570.214844 150.035156 569.777344 C 137.617188 565.203125 126.074219 558.78125 114.75 552.027344 C 109.847656 549.085938 104.949219 546.039062 100.265625 542.664062 C 99.285156 541.898438 97.980469 542.117188 97.109375 541.574219 C 96.238281 541.027344 96.238281 539.722656 95.257812 539.070312 C 87.742188 533.515625 80.882812 527.199219 74.238281 520.773438 C 69.339844 516.089844 64.546875 511.300781 59.863281 506.398438 C 52.023438 498.121094 44.835938 489.410156 38.957031 479.71875 C 36.34375 475.472656 33.292969 471.660156 30.789062 467.414062 C 22.292969 453.582031 15.976562 438.773438 11.1875 423.308594 C 7.8125 412.636719 5.632812 401.636719 3.671875 390.640625 C 2.476562 383.667969 1.386719 376.589844 0.949219 369.511719 C 0.625 364.175781 0.1875 358.730469 0.625 353.285156 C 0.949219 349.585938 0.949219 345.773438 1.167969 342.070312 C 1.820312 333.359375 2.910156 324.753906 4.542969 316.152344 C 7.484375 300.796875 11.839844 285.769531 17.9375 271.285156 C 19.136719 268.34375 20.441406 265.515625 22.078125 262.792969 C 25.671875 256.691406 28.394531 250.160156 32.09375 244.167969 C 38.085938 234.585938 44.511719 225.332031 52.132812 217.054688 C 53.875 215.09375 55.726562 213.351562 57.796875 211.609375 Z M 339.410156 376.15625 C 340.0625 376.808594 340.171875 377.460938 340.171875 378.007812 C 340.714844 385.085938 341.261719 392.164062 341.804688 399.242188 C 341.914062 400.984375 341.804688 401.09375 343.65625 400.984375 C 347.03125 400.984375 350.515625 400.765625 353.894531 400.550781 C 359.664062 400.222656 365.328125 399.785156 371.097656 399.351562 C 377.523438 398.914062 383.839844 398.371094 390.265625 397.71875 C 391.136719 397.71875 391.464844 397.5 391.570312 396.519531 C 391.570312 395.320312 391.789062 394.234375 391.898438 393.035156 C 392.226562 389.003906 392.441406 384.867188 392.878906 380.839844 C 393.421875 375.828125 393.640625 370.929688 393.859375 365.917969 C 394.183594 361.019531 394.292969 356.117188 394.402344 351.21875 C 394.511719 343.269531 394.511719 335.320312 394.402344 327.367188 C 394.402344 326.390625 393.96875 326.0625 393.097656 325.953125 C 391.789062 325.953125 390.375 325.625 389.066406 325.515625 C 383.296875 324.863281 377.523438 324.210938 371.753906 323.773438 C 365.761719 323.230469 359.773438 322.902344 353.785156 322.359375 C 350.625 322.140625 347.359375 321.925781 344.199219 321.707031 C 343.328125 321.707031 342.785156 321.816406 342.675781 322.902344 C 342.675781 324.101562 342.566406 325.191406 342.347656 326.390625 C 341.804688 330.960938 341.261719 335.425781 340.714844 340 C 340.714844 340.4375 340.714844 340.980469 339.953125 340.980469 C 339.628906 340.4375 339.519531 339.890625 339.410156 339.238281 C 338.753906 333.792969 337.992188 328.238281 337.339844 322.796875 C 337.230469 321.707031 336.90625 321.269531 335.816406 321.269531 C 331.351562 321.050781 326.996094 320.726562 322.53125 320.398438 C 317.300781 320.074219 312.074219 319.636719 306.847656 319.308594 C 301.839844 318.984375 296.71875 318.65625 291.710938 318.332031 C 287.464844 318.113281 283.109375 317.894531 278.859375 317.675781 C 278.535156 318.003906 278.535156 318.332031 278.535156 318.65625 C 278.535156 320.617188 278.644531 322.6875 278.535156 324.644531 C 278.097656 329.765625 278.316406 334.882812 277.882812 340 C 277.554688 343.703125 277.554688 347.515625 277.011719 351.21875 C 277.011719 351.652344 277.011719 352.089844 276.464844 352.089844 C 276.03125 352.089844 275.703125 351.871094 275.484375 351.542969 C 274.941406 350.78125 275.050781 349.800781 275.050781 348.929688 C 275.050781 339.675781 275.050781 330.417969 274.941406 321.269531 C 274.941406 320.398438 274.832031 319.636719 274.722656 318.875 C 274.722656 317.785156 274.070312 317.566406 273.089844 317.566406 C 268.082031 317.566406 262.960938 317.242188 257.953125 317.132812 C 249.785156 317.023438 241.507812 316.914062 233.339844 316.914062 C 225.066406 316.914062 216.789062 317.023438 208.511719 317.132812 C 203.285156 317.132812 197.949219 317.242188 192.722656 317.351562 C 192.070312 317.351562 191.414062 317.460938 190.652344 317.566406 C 189.890625 317.566406 189.5625 318.003906 189.5625 318.765625 C 189.5625 320.726562 189.238281 322.6875 189.238281 324.644531 C 189.019531 329.328125 189.019531 333.902344 188.910156 338.585938 C 188.582031 348.929688 188.800781 359.277344 188.476562 369.511719 C 188.257812 377.679688 188.476562 385.957031 188.039062 394.125 C 188.039062 395.757812 188.039062 397.390625 188.039062 399.023438 C 188.039062 400.113281 188.476562 400.441406 189.453125 400.441406 C 190.542969 400.441406 191.632812 400.441406 192.722656 400.441406 C 199.910156 400.65625 207.097656 400.984375 214.175781 401.203125 C 220.054688 401.421875 225.9375 401.421875 231.816406 401.636719 C 235.082031 401.746094 238.242188 401.636719 241.507812 401.855469 C 251.417969 402.183594 261.328125 402.292969 271.238281 402.183594 C 272.761719 402.183594 272.652344 402.183594 272.871094 400.550781 C 273.742188 391.511719 274.613281 382.363281 275.484375 373.324219 C 275.484375 372.34375 275.484375 371.144531 276.246094 370.167969 C 276.792969 371.144531 276.902344 372.015625 276.902344 372.890625 C 276.902344 376.046875 277.117188 379.3125 277.335938 382.472656 C 277.664062 388.351562 277.773438 394.34375 277.882812 400.332031 C 277.882812 402.398438 277.882812 402.292969 279.949219 402.292969 C 279.949219 402.292969 280.058594 402.292969 280.167969 402.292969 C 291.277344 402.292969 302.492188 402.292969 313.601562 401.964844 C 320.242188 401.746094 326.996094 401.527344 333.636719 401.527344 C 334.074219 401.527344 334.617188 401.527344 335.054688 401.527344 C 336.035156 401.527344 336.46875 400.984375 336.578125 400.003906 C 337.230469 392.925781 337.992188 385.847656 338.648438 378.878906 C 338.648438 378.117188 338.863281 377.246094 339.300781 376.375 Z M 93.839844 532.863281 C 93.839844 532.207031 93.734375 531.992188 93.625 531.664062 C 90.683594 522.84375 88.070312 513.804688 85.890625 504.65625 C 85.675781 503.785156 85.238281 503.457031 84.476562 503.132812 C 80.664062 501.5 76.746094 499.972656 72.933594 498.339844 C 72.605469 498.230469 72.171875 498.015625 71.84375 497.90625 C 71.625 497.90625 71.515625 497.6875 71.515625 497.46875 C 71.515625 497.144531 71.84375 497.035156 72.0625 497.035156 C 72.933594 497.144531 73.804688 497.359375 74.675781 497.578125 C 77.941406 498.339844 81.101562 499.101562 84.257812 499.863281 C 84.585938 499.210938 84.367188 498.777344 84.257812 498.339844 C 81.863281 487.777344 79.359375 477.214844 77.507812 466.542969 C 77.289062 465.125 76.636719 464.691406 75.328125 464.253906 C 69.664062 462.511719 64.113281 460.769531 58.558594 459.027344 C 58.121094 458.917969 57.46875 458.808594 57.25 458.265625 C 57.6875 457.613281 58.339844 457.9375 58.886719 457.9375 C 62.695312 458.375 66.507812 458.917969 70.210938 459.355469 C 72.171875 459.574219 74.128906 460.117188 76.199219 459.789062 C 75.21875 453.800781 74.457031 447.8125 73.914062 441.820312 C 73.367188 435.941406 73.152344 429.953125 73.042969 424.070312 C 73.042969 418.191406 73.042969 412.199219 73.585938 405.886719 C 74.457031 407.191406 74.457031 408.171875 74.566406 409.152344 C 75.328125 414.269531 76.089844 419.386719 76.960938 424.507812 C 77.941406 431.039062 78.921875 437.574219 79.464844 444.21875 C 79.902344 449.226562 80.554688 454.234375 81.101562 459.246094 C 81.210938 460.445312 81.753906 460.878906 82.84375 460.988281 C 84.695312 461.207031 86.546875 461.421875 88.289062 461.75 C 97.652344 463.382812 107.128906 465.015625 116.492188 466.652344 C 118.996094 467.085938 121.609375 467.414062 124.222656 467.847656 C 125.3125 467.957031 125.421875 467.847656 125.3125 466.757812 C 125.3125 466.542969 125.203125 466.214844 125.09375 465.996094 C 124.660156 462.949219 124.117188 459.789062 123.789062 456.632812 C 123.460938 451.949219 123.570312 447.15625 123.789062 442.476562 C 123.789062 442.039062 123.789062 441.496094 124.222656 441.167969 C 124.988281 441.496094 124.988281 442.257812 125.09375 442.910156 C 126.183594 446.394531 127.164062 449.878906 128.144531 453.363281 C 129.453125 457.9375 130.105469 462.730469 130.867188 467.414062 C 131.085938 468.503906 131.410156 468.828125 132.5 469.046875 C 139.253906 469.917969 146.003906 470.679688 152.863281 471.222656 C 158.746094 471.769531 164.515625 472.09375 170.398438 472.53125 C 174.972656 472.859375 179.546875 473.074219 184.117188 473.183594 C 186.1875 473.183594 186.1875 473.292969 186.40625 471.332031 C 186.40625 471.332031 186.625 471.222656 186.734375 471.117188 C 187.058594 471.117188 187.167969 471.441406 187.167969 471.660156 C 187.605469 473.621094 187.820312 473.292969 189.347656 473.292969 C 194.136719 473.402344 198.929688 473.621094 203.722656 473.730469 C 219.183594 473.730469 234.648438 473.945312 250.113281 473.183594 C 255.664062 472.859375 261.328125 472.640625 266.882812 472.3125 C 267.753906 472.3125 268.082031 471.878906 268.082031 471.117188 C 268.296875 467.628906 268.625 464.144531 268.84375 460.660156 C 269.058594 457.066406 269.167969 453.582031 269.386719 449.988281 C 269.714844 444.328125 270.148438 438.664062 270.476562 433 C 270.695312 429.625 270.800781 426.140625 271.019531 422.765625 C 271.238281 418.410156 271.457031 414.050781 271.78125 409.695312 C 271.890625 407.953125 271.457031 408.171875 270.257812 408.171875 C 268.1875 408.171875 266.121094 408.28125 264.160156 408.390625 C 250.546875 408.390625 236.933594 408.171875 223.324219 407.953125 C 217.332031 407.953125 211.453125 407.953125 205.464844 407.628906 C 201.652344 407.519531 197.839844 407.628906 194.027344 407.300781 C 192.285156 407.082031 190.433594 407.300781 188.691406 407.300781 C 188.039062 407.300781 187.710938 407.519531 187.710938 408.28125 C 187.710938 410.566406 187.496094 412.746094 187.496094 415.03125 C 187.386719 419.933594 187.277344 424.832031 187.058594 429.84375 C 186.839844 437.140625 186.839844 444.433594 186.625 451.730469 C 186.625 453.363281 186.1875 455 186.625 456.632812 C 186.734375 457.175781 186.296875 457.722656 185.644531 457.722656 C 184.882812 457.722656 184.773438 457.285156 184.773438 456.632812 C 184.773438 456.304688 184.773438 455.980469 184.773438 455.652344 C 184.773438 453.910156 184.773438 452.058594 184.773438 450.316406 C 184.335938 444.652344 184.335938 438.992188 184.117188 433.328125 C 183.792969 425.160156 183.792969 416.882812 183.683594 408.714844 C 183.683594 408.609375 183.683594 408.390625 183.683594 408.28125 C 183.683594 407.410156 183.246094 407.082031 182.484375 407.082031 C 180.417969 407.082031 178.347656 406.863281 176.386719 406.863281 C 171.703125 406.863281 167.128906 406.648438 162.449219 406.429688 C 157.113281 406.210938 151.667969 405.886719 146.332031 405.667969 C 142.953125 405.449219 139.46875 405.339844 136.09375 405.121094 C 130.757812 404.796875 125.53125 404.46875 120.304688 404.144531 C 119.976562 404.6875 120.085938 405.121094 120.195312 405.667969 C 120.847656 411.113281 121.394531 416.449219 122.046875 421.894531 C 122.15625 423.089844 122.15625 424.398438 122.046875 425.597656 C 122.046875 426.03125 121.71875 426.574219 121.175781 426.46875 C 120.628906 426.46875 120.304688 426.140625 120.304688 425.488281 C 120.304688 425.050781 120.304688 424.617188 120.304688 424.289062 C 120.304688 423.199219 120.195312 422.109375 119.976562 421.023438 C 119.214844 415.792969 118.453125 410.675781 117.800781 405.449219 C 117.691406 404.25 117.253906 403.925781 116.058594 403.816406 C 109.085938 403.269531 102.226562 402.617188 95.257812 401.855469 C 85.78125 400.875 76.417969 399.679688 67.050781 398.261719 C 58.992188 396.957031 51.042969 395.757812 43.09375 393.796875 C 40.046875 393.035156 36.886719 392.164062 33.839844 391.402344 C 33.511719 391.835938 33.621094 392.273438 33.621094 392.707031 C 34.164062 397.828125 34.601562 402.835938 35.144531 407.953125 C 35.90625 415.25 36.996094 422.546875 38.195312 429.84375 C 40.152344 441.058594 42.441406 452.277344 45.054688 463.273438 C 47.339844 472.859375 49.628906 482.550781 52.894531 491.914062 C 53.222656 492.894531 53.65625 493.765625 54.3125 494.636719 C 57.46875 498.339844 60.628906 501.933594 64.113281 505.417969 C 70.972656 512.496094 77.941406 519.46875 85.238281 526 C 87.851562 528.398438 90.574219 530.683594 93.734375 533.078125 Z M 120.847656 311.144531 C 122.371094 311.144531 123.679688 311.144531 124.988281 311.144531 C 132.9375 310.707031 140.996094 310.164062 148.945312 309.945312 C 157.328125 309.726562 165.714844 309.292969 174.210938 309.292969 C 177.039062 309.292969 179.980469 309.074219 182.8125 309.074219 C 183.792969 309.074219 184.335938 308.855469 184.335938 307.765625 C 184.335938 303.628906 184.773438 299.492188 185.097656 295.351562 C 185.535156 288.820312 186.078125 282.285156 186.734375 275.75 C 187.386719 269.324219 187.929688 263.007812 188.800781 256.691406 C 188.910156 255.605469 188.582031 255.167969 187.496094 255.167969 C 185.535156 254.949219 183.574219 254.734375 181.613281 254.40625 C 181.070312 254.40625 180.199219 254.40625 180.089844 253.753906 C 180.089844 252.992188 180.851562 252.992188 181.503906 252.882812 C 183.464844 252.445312 185.425781 252.011719 187.277344 251.683594 C 189.238281 251.25 189.347656 251.355469 189.5625 249.289062 C 189.890625 246.566406 190.109375 243.84375 190.433594 241.121094 C 191.199219 235.132812 191.851562 229.25 192.613281 223.261719 C 193.59375 215.964844 194.464844 208.667969 195.554688 201.371094 C 195.664062 200.390625 195.554688 200.175781 194.574219 200.175781 C 189.347656 200.609375 184.117188 200.9375 178.890625 201.261719 C 173.664062 201.589844 168.4375 202.242188 163.101562 202.132812 C 159.179688 202.132812 155.371094 201.917969 151.449219 201.699219 C 148.617188 201.589844 145.894531 201.371094 143.0625 201.15625 C 142.519531 201.15625 141.539062 201.371094 141.539062 200.609375 C 141.539062 199.847656 142.410156 199.847656 142.953125 199.738281 C 147.746094 198.433594 152.648438 197.234375 157.4375 195.925781 C 162.449219 194.621094 167.457031 193.640625 172.574219 193.3125 C 180.199219 192.769531 187.820312 192.007812 195.445312 191.898438 C 196.96875 191.898438 196.96875 191.789062 197.1875 190.265625 C 198.492188 181.878906 199.910156 173.496094 201.433594 165.109375 C 201.652344 163.691406 201.542969 163.585938 200.128906 163.691406 C 193.265625 164.238281 186.40625 165.109375 179.652344 166.199219 C 169.199219 167.941406 158.855469 170.226562 148.726562 173.058594 C 147.855469 173.277344 147.3125 173.710938 147.09375 174.582031 C 146.765625 175.78125 146.332031 177.085938 146.003906 178.285156 C 142.410156 190.046875 139.796875 202.027344 136.964844 214.003906 C 135.984375 218.359375 134.894531 222.609375 134.242188 227.074219 C 134.242188 227.617188 133.808594 228.269531 134.679688 228.597656 C 135.660156 229.03125 135.984375 229.902344 136.203125 230.882812 C 137.074219 233.714844 137.835938 236.546875 138.925781 239.269531 C 141.105469 244.605469 144.480469 248.632812 150.359375 250.050781 C 152.101562 250.484375 153.734375 251.355469 155.261719 252.554688 C 155.804688 252.992188 155.914062 253.425781 155.261719 253.863281 C 154.390625 254.40625 153.519531 254.949219 152.539062 255.277344 C 146.65625 257.238281 141.757812 260.722656 137.945312 265.40625 C 134.894531 269.214844 132.5 273.355469 131.628906 278.363281 C 131.410156 279.453125 131.519531 280.542969 131.085938 281.523438 C 130.757812 282.394531 130.214844 282.609375 129.558594 282.066406 C 128.582031 281.195312 127.816406 280.324219 127.925781 278.910156 C 127.925781 278.363281 127.925781 277.820312 127.710938 277.382812 C 127.164062 276.1875 126.945312 274.878906 126.511719 273.679688 C 126.292969 272.808594 126.074219 271.9375 125.203125 270.851562 C 123.679688 284.460938 121.9375 297.75 120.957031 311.035156 Z M 126.730469 203.660156 C 123.460938 206.164062 120.738281 208.449219 117.363281 209.757812 C 112.246094 211.71875 107.453125 214.222656 103.097656 217.707031 C 96.78125 222.824219 91.445312 228.816406 86.980469 235.675781 C 83.714844 240.578125 80.554688 245.476562 79.792969 251.574219 C 79.25 255.714844 78.488281 259.851562 77.722656 264.097656 C 78.050781 264.097656 78.160156 264.207031 78.378906 264.207031 C 83.167969 263.445312 87.960938 263.226562 92.863281 263.007812 C 95.582031 263.007812 98.304688 262.355469 101.027344 262.574219 C 102.988281 262.683594 104.839844 262.792969 107.019531 263.878906 C 104.40625 265.078125 102.007812 265.949219 99.503906 266.167969 C 92.316406 266.820312 85.238281 267.910156 78.160156 268.78125 C 76.960938 268.890625 76.527344 269.324219 76.417969 270.523438 C 75.328125 277.273438 74.347656 284.027344 73.585938 290.777344 C 72.714844 298.511719 72.386719 306.242188 71.84375 314.082031 C 71.84375 315.714844 71.84375 315.609375 73.367188 315.5 C 78.488281 314.953125 83.714844 314.191406 88.832031 313.757812 C 96.5625 313.101562 104.1875 312.558594 111.917969 311.90625 C 113.335938 311.90625 115.1875 312.339844 116.058594 311.25 C 116.929688 310.273438 116.492188 308.527344 116.601562 307.113281 C 117.253906 299.164062 118.015625 291.214844 119.105469 283.375 C 119.757812 278.472656 120.304688 273.464844 121.609375 268.671875 C 122.15625 266.710938 121.609375 265.515625 120.195312 264.207031 C 116.710938 260.941406 112.898438 258.4375 108.433594 257.019531 C 107.5625 256.691406 106.910156 256.257812 106.257812 255.496094 C 105.929688 255.058594 106.039062 254.734375 106.582031 254.625 C 107.019531 254.625 107.453125 254.625 107.78125 254.625 C 110.613281 254.40625 113.441406 253.863281 115.949219 252.226562 C 117.800781 250.921875 119.324219 249.289062 120.847656 247.546875 C 124.769531 242.863281 127.925781 237.636719 130.429688 232.082031 C 130.976562 230.882812 132.066406 230.011719 132.5 228.816406 C 132.828125 227.617188 132.609375 226.203125 132.71875 224.894531 C 133.261719 219.449219 134.132812 213.894531 135.003906 208.449219 C 136.421875 198.976562 138.164062 189.503906 140.667969 180.136719 C 141.105469 178.503906 141.539062 176.871094 141.867188 175.238281 C 140.996094 175.019531 140.449219 175.238281 139.90625 175.34375 C 132.066406 177.089844 124.222656 178.066406 116.273438 179.265625 C 115.730469 179.265625 115.078125 179.703125 114.859375 179.046875 C 114.640625 178.394531 115.402344 178.285156 115.839844 177.960938 C 115.949219 177.960938 116.058594 177.851562 116.164062 177.742188 C 125.3125 173.277344 134.242188 168.265625 144.042969 165.4375 C 144.699219 165.21875 145.132812 165 145.351562 164.347656 C 146.332031 161.1875 147.3125 158.03125 148.074219 154.761719 C 147.3125 154.546875 146.765625 154.871094 146.222656 155.089844 C 143.390625 156.179688 140.449219 157.269531 137.617188 158.355469 C 121.609375 164.890625 106.691406 173.167969 93.1875 183.949219 C 91.882812 185.039062 91.882812 185.039062 92.859375 186.34375 C 97.433594 192.441406 103.207031 197.234375 110.285156 200.285156 C 112.246094 201.15625 114.207031 201.371094 116.273438 201.480469 C 117.144531 201.480469 118.015625 201.480469 118.886719 201.480469 C 121.5 201.699219 124.007812 202.242188 126.730469 203.550781 Z M 66.398438 326.28125 C 65.308594 326.28125 64.546875 326.28125 63.785156 326.390625 C 56.164062 327.476562 48.539062 327.914062 40.917969 328.238281 C 38.304688 328.347656 35.6875 328.566406 33.183594 328.675781 C 32.203125 328.675781 31.660156 329.003906 31.660156 330.089844 C 31.660156 334.449219 31.332031 338.695312 31.332031 343.050781 C 31.332031 346.96875 31.332031 350.890625 31.550781 354.703125 C 31.769531 358.40625 31.769531 362.109375 31.988281 365.808594 C 32.3125 371.691406 32.75 377.570312 32.964844 383.34375 C 32.964844 385.304688 33.292969 385.519531 35.253906 385.738281 C 42.113281 386.175781 48.976562 387.15625 55.726562 388.242188 C 75 391.621094 94.386719 394.015625 113.769531 395.757812 C 117.472656 396.085938 116.820312 396.085938 116.492188 393.035156 C 115.730469 385.085938 115.402344 377.136719 115.078125 369.1875 C 114.75 358.621094 114.96875 348.167969 115.078125 337.605469 C 115.078125 337.0625 115.078125 336.515625 115.078125 335.972656 C 115.402344 331.507812 115.1875 326.933594 115.621094 322.46875 C 115.730469 321.269531 115.402344 321.050781 114.207031 321.160156 C 111.59375 321.378906 108.871094 321.488281 106.257812 321.816406 C 98.089844 322.578125 89.8125 323.449219 81.644531 324.210938 C 78.59375 324.539062 75.546875 324.972656 72.496094 325.300781 C 71.515625 325.300781 71.082031 325.734375 71.082031 326.824219 C 71.082031 328.023438 71.082031 329.328125 70.972656 330.527344 C 70.535156 336.40625 70.320312 342.398438 70.320312 348.386719 C 70.320312 350.019531 70.320312 351.652344 70.320312 353.285156 C 70.320312 359.492188 70.210938 365.703125 70.644531 371.910156 C 70.972656 375.9375 70.320312 379.96875 70.753906 383.996094 C 70.753906 384.433594 70.644531 384.648438 70.210938 384.648438 C 69.992188 384.648438 69.664062 384.539062 69.558594 384.214844 C 69.339844 383.453125 69.230469 382.582031 69.121094 381.820312 C 68.46875 376.917969 68.25 371.910156 67.816406 366.898438 C 67.269531 360.257812 66.941406 353.722656 66.726562 347.078125 C 66.507812 341.308594 66.617188 335.535156 66.507812 329.875 C 66.507812 328.675781 66.507812 327.585938 66.507812 326.28125 Z M 118.671875 368.207031 C 118.886719 373.761719 118.453125 379.3125 118.886719 384.757812 C 119.105469 388.132812 119.105469 391.621094 119.324219 394.996094 C 119.324219 395.976562 119.652344 396.410156 120.738281 396.410156 C 122.808594 396.410156 124.878906 396.628906 126.835938 396.847656 C 133.589844 397.5 140.339844 397.828125 147.09375 398.261719 C 151.230469 398.480469 155.261719 398.589844 159.398438 398.914062 C 167.128906 399.460938 174.972656 399.570312 182.703125 400.003906 C 183.683594 400.003906 183.902344 399.570312 183.792969 398.808594 C 183.792969 397.28125 183.574219 395.757812 183.574219 394.34375 C 183.574219 383.667969 183.355469 372.996094 183.140625 362.324219 C 183.03125 352.199219 183.140625 342.070312 183.140625 331.941406 C 183.140625 331.179688 183.140625 330.417969 183.140625 329.65625 C 183.574219 326.0625 183.246094 322.578125 183.464844 318.984375 C 183.464844 317.566406 183.464844 317.460938 182.050781 317.460938 C 179 317.460938 176.058594 317.566406 173.011719 317.675781 C 169.308594 317.785156 165.496094 318.003906 161.792969 318.113281 C 156.785156 318.332031 151.667969 318.65625 146.65625 318.875 C 142.738281 319.09375 138.707031 319.308594 134.789062 319.527344 C 131.085938 319.746094 127.382812 319.964844 123.789062 320.289062 C 119.433594 320.726562 120.414062 319.746094 119.976562 324.210938 C 119.652344 327.695312 119.652344 331.179688 119.433594 334.664062 C 119.214844 341.308594 118.886719 348.058594 118.671875 354.703125 C 118.5625 359.167969 118.671875 363.632812 118.671875 367.988281 Z M 190.21875 308.855469 C 190.980469 309.183594 191.523438 309.074219 192.070312 309.074219 C 202.085938 309.074219 211.996094 309.074219 222.015625 309.074219 C 226.699219 309.074219 231.273438 309.183594 235.953125 309.292969 C 244.230469 309.507812 252.617188 309.835938 260.894531 310.054688 C 264.488281 310.164062 268.082031 310.378906 271.78125 310.597656 C 272.4375 310.597656 272.980469 310.597656 273.632812 310.597656 C 274.289062 310.597656 274.613281 310.273438 274.613281 309.617188 C 274.613281 308.421875 274.394531 307.332031 274.394531 306.132812 C 274.394531 300.90625 273.851562 295.789062 273.417969 290.5625 C 272.980469 284.679688 272.328125 278.910156 271.78125 273.027344 C 271.347656 268.78125 271.019531 264.535156 270.585938 260.179688 C 270.585938 259.308594 270.367188 258.761719 269.277344 258.761719 C 266.664062 258.761719 263.941406 258.4375 261.328125 258.328125 C 257.734375 258.21875 254.140625 258 250.4375 257.890625 C 243.359375 257.671875 236.390625 257.238281 229.3125 257.128906 C 222.234375 257.019531 215.046875 257.019531 207.96875 256.910156 C 207.421875 256.910156 206.878906 256.910156 206.335938 256.800781 C 202.957031 256.691406 199.691406 256.367188 196.316406 255.929688 C 195.445312 255.820312 194.898438 256.148438 194.898438 257.128906 C 194.789062 258.652344 194.574219 260.285156 194.355469 261.8125 C 193.8125 267.148438 193.265625 272.484375 192.613281 277.820312 C 191.851562 284.679688 191.304688 291.542969 190.761719 298.402344 C 190.433594 301.777344 190.324219 305.152344 190 308.636719 Z M 333.09375 406.320312 C 331.460938 406.320312 330.152344 406.429688 328.738281 406.539062 C 321.550781 406.867188 314.363281 407.191406 307.285156 407.410156 C 300.640625 407.628906 293.890625 407.628906 287.246094 407.84375 C 284.632812 407.84375 282.019531 408.0625 279.40625 407.953125 C 278.316406 407.953125 277.988281 408.28125 277.988281 409.371094 C 277.988281 414.707031 277.988281 420.042969 277.554688 425.378906 C 277.335938 429.40625 277.226562 433.4375 277.011719 437.464844 C 276.683594 442.691406 276.355469 447.921875 275.921875 453.148438 C 275.703125 456.414062 275.375 459.679688 275.160156 462.949219 C 274.941406 465.34375 274.832031 467.847656 274.613281 470.246094 C 274.613281 471.117188 274.832031 471.550781 275.703125 471.441406 C 276.03125 471.441406 276.355469 471.441406 276.683594 471.441406 C 281.148438 471.117188 285.503906 470.679688 289.96875 470.246094 C 296.394531 469.589844 302.820312 469.046875 309.351562 468.285156 C 316.324219 467.523438 323.292969 466.542969 330.261719 465.453125 C 331.242188 465.34375 331.785156 465.015625 331.894531 463.820312 C 332.332031 458.917969 332.875 454.019531 333.3125 449.226562 C 333.964844 442.257812 334.507812 435.398438 334.945312 428.425781 C 335.378906 422.109375 335.707031 415.796875 335.925781 409.371094 C 335.925781 408.390625 336.796875 407.191406 335.925781 406.429688 C 335.160156 405.667969 333.964844 406.429688 333.203125 406.429688 Z M 224.519531 199.414062 C 217.769531 199.195312 211.015625 199.414062 204.265625 199.628906 C 203.285156 199.628906 202.847656 199.957031 202.742188 201.046875 C 202.195312 205.621094 201.433594 210.191406 200.78125 214.765625 C 199.910156 221.300781 198.929688 227.835938 198.058594 234.367188 C 197.40625 238.941406 196.859375 243.40625 196.316406 247.980469 C 196.097656 249.722656 196.207031 249.722656 197.839844 249.507812 C 202.304688 248.851562 206.769531 248.308594 211.34375 248.417969 C 217.441406 248.417969 223.648438 248.417969 229.746094 248.851562 C 234.539062 249.179688 239.441406 249.179688 244.230469 249.507812 C 252.289062 250.050781 260.457031 250.703125 268.515625 251.25 C 269.714844 251.25 269.824219 251.25 269.714844 250.050781 C 269.714844 248.742188 269.496094 247.328125 269.386719 246.019531 C 269.058594 241.011719 268.734375 236.109375 268.515625 231.101562 C 268.1875 225.765625 267.972656 220.429688 267.753906 215.203125 C 267.535156 210.847656 267.316406 206.492188 267.207031 202.132812 C 267.207031 201.261719 266.882812 200.828125 265.902344 200.71875 C 257.40625 200.390625 248.914062 199.847656 240.3125 199.519531 C 235.082031 199.304688 229.746094 199.519531 224.519531 199.519531 Z M 214.066406 479.9375 C 212.433594 479.9375 210.800781 479.9375 209.164062 479.9375 C 203.175781 479.71875 197.1875 479.9375 191.089844 479.71875 C 189.238281 479.71875 189.238281 479.71875 189.5625 481.460938 C 191.742188 492.570312 192.832031 503.675781 193.8125 514.894531 C 194.027344 517.289062 194.246094 519.683594 194.574219 521.972656 C 194.789062 523.605469 194.789062 523.605469 196.425781 523.714844 C 205.570312 524.476562 214.828125 525.019531 223.976562 525.347656 C 234.429688 525.675781 244.882812 525.675781 255.339844 525.347656 C 257.515625 525.347656 259.695312 525.128906 261.871094 525.019531 C 263.941406 524.804688 263.941406 524.804688 264.050781 522.625 C 264.269531 519.140625 264.59375 515.546875 264.921875 512.0625 C 265.574219 505.527344 266.230469 498.992188 266.773438 492.570312 C 267.207031 488.320312 267.425781 483.964844 267.753906 479.71875 C 267.863281 478.085938 267.863281 477.976562 266.230469 478.085938 C 262.851562 478.304688 259.585938 478.410156 256.210938 478.738281 C 249.785156 479.28125 243.25 479.5 236.824219 479.71875 C 229.203125 480.046875 221.6875 479.9375 214.066406 480.046875 Z M 332.546875 515.65625 C 332.875 515.875 333.203125 515.65625 333.527344 515.65625 C 340.714844 514.023438 347.902344 512.496094 354.980469 510.320312 C 360.863281 508.46875 366.632812 506.398438 372.625 504.984375 C 373.496094 504.765625 373.820312 504.328125 374.039062 503.566406 C 374.800781 500.191406 375.671875 496.816406 376.542969 493.441406 C 377.195312 490.609375 377.742188 491.042969 374.691406 489.847656 C 369.246094 487.449219 363.476562 485.925781 357.488281 485.273438 C 355.527344 485.054688 353.566406 484.292969 351.824219 483.3125 C 352.367188 482.441406 353.128906 482.332031 353.785156 482.113281 C 361.296875 479.390625 368.484375 475.90625 375.453125 471.988281 C 384.820312 466.652344 393.097656 460.007812 398.757812 450.535156 C 398.867188 450.316406 399.085938 450.097656 399.195312 449.878906 C 401.699219 446.941406 403.222656 443.457031 404.640625 439.863281 C 405.730469 436.921875 406.492188 434.089844 405.730469 430.824219 C 405.292969 428.753906 405.730469 426.574219 406.601562 424.070312 C 408.234375 426.574219 409.429688 428.753906 410.085938 431.257812 C 411.066406 435.070312 412.042969 438.882812 413.132812 442.800781 C 413.570312 444.328125 413.570312 444.328125 415.09375 444.109375 C 418.359375 443.5625 421.519531 443.019531 424.785156 442.585938 C 425.546875 442.476562 425.65625 441.929688 425.765625 441.277344 C 425.984375 437.25 426.203125 433.21875 426.527344 429.191406 C 426.746094 426.359375 426.746094 423.636719 427.183594 420.804688 C 428.160156 413.835938 429.359375 406.757812 430.011719 399.679688 C 430.121094 398.589844 430.339844 397.390625 430.230469 396.191406 C 429.90625 396.191406 429.6875 396.085938 429.578125 396.191406 C 419.449219 398.042969 409.324219 399.570312 399.195312 400.765625 C 397.777344 400.984375 397.671875 401.09375 397.5625 402.617188 C 396.800781 409.914062 395.820312 417.101562 394.621094 424.289062 C 393.207031 433.4375 391.570312 442.476562 388.742188 451.296875 C 388.632812 451.839844 388.195312 452.277344 388.632812 452.929688 C 391.136719 452.492188 393.640625 452.058594 396.253906 451.730469 C 396.582031 451.730469 397.015625 451.515625 397.125 451.949219 C 397.234375 452.386719 397.125 452.710938 396.691406 453.039062 C 396.144531 453.363281 395.601562 453.691406 395.054688 453.800781 C 393.421875 454.238281 391.789062 454.890625 390.15625 455.109375 C 387.976562 455.433594 386.890625 456.523438 386.453125 458.703125 C 386.125 460.226562 385.691406 461.859375 384.820312 463.167969 C 384.277344 463.058594 384.277344 462.730469 384.277344 462.296875 C 384.277344 461.207031 384.277344 460.117188 384.492188 459.027344 C 384.710938 457.066406 384.710938 456.632812 382.535156 457.285156 C 368.375 461.640625 354.21875 465.671875 339.84375 468.71875 C 338.101562 469.046875 338.101562 469.15625 337.992188 470.789062 C 337.558594 475.363281 337.121094 479.9375 336.578125 484.402344 C 335.378906 494.3125 334.507812 504.332031 332.984375 514.238281 C 332.984375 514.785156 332.765625 515.328125 332.984375 515.875 Z M 35.472656 279.5625 C 34.492188 279.5625 33.839844 279.996094 33.183594 280.214844 C 29.265625 281.523438 25.5625 283.589844 21.316406 284.246094 C 19.898438 284.460938 19.246094 285.007812 18.808594 286.421875 C 16.195312 294.808594 13.691406 303.300781 11.839844 311.90625 C 9.554688 322.578125 8.136719 333.25 7.265625 344.03125 C 6.941406 347.734375 6.941406 351.4375 6.613281 355.027344 C 6.175781 360.910156 6.613281 366.789062 6.941406 372.671875 C 7.265625 379.097656 8.136719 385.414062 9.226562 391.726562 C 10.640625 400.441406 12.058594 409.152344 14.234375 417.644531 C 18.917969 435.832031 25.671875 453.148438 35.253906 469.265625 C 38.195312 474.273438 41.242188 479.285156 44.945312 483.75 C 46.253906 485.273438 47.667969 486.796875 49.082031 488.320312 C 47.886719 484.402344 46.578125 480.699219 45.488281 476.886719 C 40.371094 459.898438 36.125 442.800781 32.75 425.378906 C 30.570312 413.945312 28.9375 402.507812 28.066406 390.964844 C 28.066406 389.878906 27.628906 389.441406 26.652344 389.113281 C 22.730469 388.027344 18.917969 386.71875 15.105469 385.519531 C 14.453125 385.304688 13.800781 385.304688 13.363281 384.433594 C 14.453125 383.886719 15.433594 384.214844 16.414062 384.214844 C 19.246094 384.433594 22.078125 384.757812 25.015625 384.976562 C 25.886719 384.976562 26.867188 385.519531 27.523438 384.867188 C 28.066406 384.324219 27.523438 383.453125 27.523438 382.691406 C 27.304688 377.136719 26.867188 371.472656 26.757812 365.917969 C 26.652344 356.664062 26.542969 347.296875 27.085938 338.039062 C 27.195312 335.535156 27.414062 333.140625 27.523438 330.636719 C 27.523438 329.765625 27.628906 328.894531 26.324219 329.109375 C 25.996094 329.109375 25.5625 329.109375 25.453125 328.675781 C 25.453125 328.132812 25.78125 327.914062 26.105469 327.804688 C 27.628906 327.476562 27.957031 326.390625 27.847656 325.082031 C 27.847656 324.539062 28.066406 323.992188 28.066406 323.449219 C 29.15625 311.359375 31.441406 299.601562 33.730469 287.730469 C 34.273438 285.117188 34.710938 282.394531 35.253906 279.5625 Z M 411.066406 228.160156 C 410.847656 228.816406 411.066406 229.03125 411.066406 229.359375 C 414.441406 240.03125 417.382812 250.703125 420.429688 261.375 C 421.628906 265.621094 422.824219 269.980469 424.023438 274.226562 C 424.242188 274.988281 424.351562 275.75 425.441406 276.078125 C 428.925781 276.949219 432.300781 278.472656 436.003906 278.472656 C 436.21875 278.472656 436.546875 278.472656 436.65625 278.910156 C 436.546875 279.125 436.113281 279.234375 435.785156 279.234375 C 432.191406 279.671875 428.816406 278.363281 425.332031 277.820312 C 425.003906 278.582031 425.332031 279.234375 425.546875 279.890625 C 429.796875 296.441406 433.714844 312.996094 435.894531 329.984375 C 435.894531 330.636719 436.003906 331.070312 436.875 331.179688 C 437.527344 331.179688 437.527344 331.832031 437.089844 332.050781 C 436.003906 332.703125 436.328125 333.574219 436.4375 334.554688 C 436.984375 339.566406 437.417969 344.574219 437.746094 349.585938 C 438.070312 354.050781 438.179688 358.621094 438.289062 363.085938 C 438.507812 370.929688 438.289062 378.769531 437.527344 386.609375 C 437.417969 388.351562 437.308594 390.09375 437.308594 391.726562 C 437.964844 391.945312 438.398438 391.726562 438.835938 391.726562 C 439.269531 391.726562 439.8125 391.511719 440.03125 392.054688 C 440.359375 392.707031 440.140625 393.253906 439.707031 393.6875 C 439.378906 394.015625 438.835938 394.234375 438.398438 394.234375 C 437.089844 394.234375 436.765625 395.105469 436.65625 396.300781 C 436.4375 399.679688 435.894531 403.054688 435.457031 406.429688 C 434.152344 417.320312 431.539062 427.773438 427.726562 438.011719 C 427.289062 439.316406 426.855469 440.515625 426.417969 441.929688 C 427.507812 441.929688 428.488281 441.929688 429.46875 441.929688 C 431.863281 441.714844 434.261719 441.386719 436.546875 441.167969 C 437.199219 441.167969 437.855469 441.167969 438.070312 441.929688 C 438.289062 442.691406 437.855469 443.238281 437.199219 443.5625 C 436.4375 443.890625 435.675781 444.109375 434.914062 444.328125 C 428.925781 445.851562 422.71875 446.832031 416.726562 448.464844 C 415.09375 448.898438 415.09375 448.792969 415.746094 450.316406 C 418.796875 457.394531 424.351562 462.511719 429.90625 467.847656 C 431.320312 464.800781 432.84375 461.96875 434.152344 459.027344 C 438.507812 449.445312 441.882812 439.644531 444.605469 429.515625 C 448.308594 415.796875 451.03125 401.855469 452.011719 387.699219 C 452.445312 382.144531 452.773438 376.699219 452.882812 371.144531 C 452.992188 360.257812 453.207031 349.257812 452.554688 338.367188 C 452.230469 332.703125 451.792969 326.933594 451.359375 321.269531 C 451.03125 317.675781 450.59375 314.082031 449.832031 310.597656 C 448.417969 304.0625 446.128906 297.75 444.0625 291.433594 C 437.636719 271.175781 427.835938 252.445312 415.855469 235.023438 C 414.332031 232.734375 412.808594 230.558594 410.847656 228.378906 Z M 276.140625 259.632812 C 276.464844 263.226562 276.792969 266.601562 276.902344 270.085938 C 277.226562 276.511719 277.773438 283.046875 278.097656 289.472656 C 278.316406 294.808594 278.753906 300.253906 278.535156 305.589844 C 278.535156 307.003906 278.535156 308.421875 278.535156 309.945312 C 278.535156 310.816406 278.753906 311.144531 279.730469 311.25 C 282.890625 311.359375 286.046875 311.578125 289.097656 311.90625 C 296.285156 312.449219 303.472656 313.101562 310.660156 313.757812 C 318.828125 314.519531 326.996094 315.28125 335.054688 316.042969 C 336.46875 316.152344 336.46875 316.152344 336.46875 314.628906 C 336.46875 311.578125 336.25 308.636719 336.140625 305.589844 C 335.816406 299.816406 335.378906 294.046875 334.835938 288.273438 C 334.183594 280.867188 333.3125 273.464844 332.332031 266.167969 C 332.113281 264.425781 332.332031 264.425781 330.371094 264.207031 C 325.035156 263.664062 319.699219 263.226562 314.253906 262.683594 C 305.867188 261.921875 297.59375 261.160156 289.207031 260.503906 C 284.851562 260.179688 280.496094 259.742188 275.921875 259.632812 Z M 268.953125 524.367188 C 269.929688 524.804688 270.800781 524.585938 271.675781 524.585938 C 276.464844 524.148438 281.367188 523.824219 286.15625 523.277344 C 298.679688 521.972656 311.203125 520.121094 323.617188 517.726562 C 326.777344 517.070312 326.777344 517.070312 327.105469 514.023438 C 328.082031 505.203125 328.847656 496.378906 329.609375 487.558594 C 330.152344 482.222656 330.589844 476.886719 331.132812 471.441406 C 331.132812 470.460938 331.132812 470.246094 330.042969 470.355469 C 329.824219 470.355469 329.609375 470.355469 329.390625 470.355469 C 314.582031 473.074219 299.660156 474.820312 284.742188 476.34375 C 281.582031 476.667969 278.316406 476.996094 275.160156 477.214844 C 274.289062 477.214844 273.851562 477.539062 273.742188 478.519531 C 273.199219 484.292969 272.652344 490.0625 272.109375 495.835938 C 271.675781 500.191406 271.128906 504.65625 270.585938 509.011719 C 270.039062 514.132812 269.496094 519.140625 268.84375 524.257812 Z M 273.742188 201.371094 C 274.070312 204.964844 273.960938 208.234375 274.070312 211.5 C 274.394531 219.449219 274.613281 227.289062 274.941406 235.238281 C 275.160156 239.378906 275.265625 243.40625 275.484375 247.546875 C 275.484375 248.742188 275.484375 249.832031 275.703125 251.03125 C 275.8125 251.792969 276.03125 252.011719 276.792969 252.121094 C 278.753906 252.226562 280.710938 252.554688 282.671875 252.773438 C 293.234375 253.863281 303.691406 255.167969 314.144531 256.476562 C 319.371094 257.128906 324.597656 257.78125 329.824219 258.328125 C 331.351562 258.542969 331.460938 258.542969 331.242188 256.910156 C 331.023438 255.167969 330.695312 253.535156 330.480469 251.902344 C 328.410156 237.960938 325.6875 224.242188 322.746094 210.519531 C 322.09375 207.253906 322.636719 208.015625 319.371094 207.472656 C 307.828125 205.621094 296.285156 203.878906 284.742188 202.570312 C 281.148438 202.136719 277.554688 201.808594 273.632812 201.480469 Z M 394.183594 318.222656 C 394.078125 316.585938 393.859375 314.953125 393.859375 313.320312 C 393.640625 307.875 393.097656 302.429688 392.660156 296.984375 C 391.898438 288.820312 390.808594 280.761719 389.613281 272.59375 C 389.285156 270.742188 389.285156 270.632812 387.324219 270.414062 C 372.296875 268.238281 357.269531 266.496094 342.242188 265.078125 C 341.261719 265.078125 340.171875 264.96875 339.191406 264.859375 C 338.539062 264.859375 338.320312 265.1875 338.429688 265.730469 C 338.429688 266.058594 338.539062 266.386719 338.648438 266.710938 C 340.28125 277.382812 341.476562 288.054688 342.347656 298.835938 C 342.785156 304.171875 342.894531 309.617188 343.21875 314.953125 C 343.21875 316.480469 343.328125 316.585938 344.855469 316.695312 C 348.773438 317.023438 352.695312 317.351562 356.722656 317.785156 C 365.328125 318.546875 373.929688 319.527344 382.535156 320.726562 C 386.019531 321.160156 389.613281 321.707031 393.097656 322.25 C 393.96875 322.359375 394.402344 322.25 394.292969 321.269531 C 394.292969 320.289062 394.292969 319.203125 394.292969 318.222656 Z M 390.808594 401.855469 C 390.375 401.855469 390.046875 401.855469 389.828125 401.855469 C 385.582031 402.292969 381.226562 402.726562 376.980469 403.164062 C 365.980469 404.359375 354.980469 405.121094 343.875 405.777344 C 342.347656 405.777344 342.347656 405.777344 342.242188 407.410156 C 342.242188 410.894531 342.242188 414.378906 342.023438 417.863281 C 341.695312 424.398438 341.261719 430.933594 340.714844 437.464844 C 340.0625 445.851562 339.300781 454.128906 338.210938 462.511719 C 338.101562 463.820312 338.210938 464.039062 339.734375 463.820312 C 342.132812 463.382812 344.417969 462.949219 346.8125 462.402344 C 358.683594 460.117188 370.445312 457.175781 382.207031 454.34375 C 384.058594 453.910156 383.949219 453.910156 384.382812 451.839844 C 384.601562 450.859375 384.492188 449.988281 384.601562 449.007812 C 384.820312 446.179688 384.820312 443.457031 385.253906 440.625 C 387 428.972656 389.175781 417.429688 390.484375 405.667969 C 390.59375 404.46875 390.917969 403.273438 390.699219 401.855469 Z M 388.304688 267.148438 C 388.523438 266.167969 388.304688 265.40625 388.195312 264.644531 C 386.890625 257.566406 385.472656 250.484375 383.839844 243.40625 C 381.878906 235.347656 379.917969 227.398438 377.960938 219.339844 C 377.742188 218.25 377.195312 217.597656 376 217.378906 C 372.40625 216.726562 368.8125 215.746094 365.21875 215.09375 C 355.089844 213.132812 344.964844 211.5 334.726562 209.757812 C 332.113281 209.320312 329.5 208.886719 326.777344 208.449219 C 326.667969 209.648438 327.105469 210.628906 327.320312 211.609375 C 330.804688 225.875 333.855469 240.25 336.46875 254.625 C 336.6875 256.039062 336.46875 257.671875 337.339844 258.761719 C 338.101562 259.851562 339.953125 259.523438 341.371094 259.632812 C 354.546875 261.265625 367.613281 263.335938 380.574219 265.730469 C 383.078125 266.167969 385.691406 266.601562 388.195312 267.148438 Z M 452.230469 481.242188 C 452.121094 481.242188 452.011719 481.132812 451.792969 481.132812 C 444.386719 480.808594 437.636719 478.519531 431.429688 474.382812 C 428.378906 472.3125 425.765625 469.917969 423.042969 467.523438 C 418.796875 463.601562 415.09375 459.246094 412.589844 454.019531 C 410.957031 450.644531 409.757812 447.265625 408.777344 443.671875 C 408.34375 442.148438 408.125 440.625 407.363281 439.097656 C 407.253906 439.425781 407.035156 439.535156 407.035156 439.753906 C 406.164062 444.109375 404.203125 448.027344 402.351562 451.949219 C 399.847656 457.175781 396.582031 461.859375 392.226562 465.671875 C 384.167969 472.640625 374.800781 477.324219 364.671875 480.699219 C 364.128906 480.917969 363.476562 480.917969 363.148438 481.460938 C 363.367188 481.460938 363.476562 481.570312 363.585938 481.570312 C 371.753906 483.3125 379.15625 486.363281 385.800781 491.589844 C 394.511719 498.449219 400.5 507.269531 405.183594 517.179688 C 406.273438 519.574219 407.035156 522.082031 407.796875 524.695312 C 408.015625 524.476562 408.125 524.367188 408.125 524.257812 C 408.34375 523.605469 408.667969 522.953125 408.886719 522.296875 C 412.589844 511.515625 418.253906 502.042969 427.074219 494.527344 C 434.042969 488.539062 441.664062 483.75 450.8125 481.898438 C 451.359375 481.898438 451.902344 481.898438 452.230469 481.242188 Z M 227.894531 562.699219 C 230.074219 562.699219 232.253906 562.699219 234.429688 562.699219 C 242.597656 562.699219 250.65625 561.9375 258.714844 561.285156 C 259.914062 561.285156 260.347656 560.738281 260.566406 559.652344 C 261.328125 555.511719 261.980469 551.265625 262.308594 547.128906 C 262.527344 544.40625 262.851562 541.683594 262.960938 538.960938 C 263.070312 536.347656 263.070312 533.625 263.398438 531.011719 C 263.507812 530.03125 263.179688 529.703125 262.089844 529.703125 C 259.585938 529.921875 257.082031 530.03125 254.578125 530.140625 C 247.171875 530.355469 239.65625 530.683594 232.253906 530.574219 C 227.679688 530.574219 223.105469 530.574219 218.53125 530.574219 C 211.234375 530.25 203.9375 530.03125 196.640625 529.378906 C 195.117188 529.269531 194.898438 529.59375 195.007812 530.902344 C 195.554688 536.5625 195.988281 542.335938 196.425781 548 C 196.75 551.808594 197.078125 555.621094 197.40625 559.433594 C 197.621094 561.609375 197.730469 561.609375 199.910156 561.71875 C 209.164062 562.480469 218.421875 562.808594 227.789062 562.699219 Z M 189.78125 522.84375 C 190.21875 522.296875 190 521.972656 190 521.535156 C 189.453125 516.417969 188.800781 511.300781 188.257812 506.074219 C 187.605469 500.84375 187.167969 495.617188 186.949219 490.390625 C 186.839844 487.234375 186.949219 484.074219 186.839844 480.917969 C 186.839844 479.28125 186.839844 479.28125 185.316406 479.28125 C 177.367188 479.175781 169.527344 478.628906 161.578125 478.085938 C 153.082031 477.433594 144.589844 476.667969 136.09375 475.691406 C 135.003906 475.582031 133.917969 475.144531 132.9375 475.691406 C 132.9375 475.796875 132.9375 475.90625 132.9375 475.90625 C 135.003906 488.320312 137.402344 500.628906 139.796875 512.933594 C 140.015625 513.914062 140.558594 514.457031 141.539062 514.566406 C 143.71875 515.003906 145.894531 515.546875 148.183594 515.980469 C 160.269531 518.597656 172.359375 520.773438 184.664062 522.296875 C 186.515625 522.515625 188.257812 522.953125 190 522.734375 Z M 431.863281 368.640625 C 431.429688 362.652344 431.539062 356.773438 431.101562 350.890625 C 430.777344 345.226562 430.230469 339.457031 429.6875 333.792969 C 429.46875 331.941406 429.46875 331.941406 427.835938 331.617188 C 422.71875 330.636719 417.488281 329.65625 412.371094 328.785156 C 408.886719 328.132812 405.402344 327.695312 401.808594 327.152344 C 400.828125 326.933594 400.394531 327.152344 400.5 328.238281 C 400.5 328.785156 400.5 329.328125 400.5 329.875 C 400.71875 337.167969 400.609375 344.355469 400.609375 351.652344 C 400.609375 354.59375 400.609375 357.535156 400.5 360.472656 C 400.175781 366.789062 399.847656 373.105469 399.414062 379.421875 C 399.195312 382.691406 398.867188 385.957031 398.648438 389.222656 C 398.433594 391.402344 398.324219 393.578125 398.105469 395.757812 C 398.105469 396.519531 398.214844 396.957031 399.085938 396.847656 C 399.304688 396.847656 399.628906 396.847656 399.847656 396.847656 C 409.539062 395.867188 419.230469 394.558594 428.925781 393.253906 C 430.449219 393.035156 430.667969 393.035156 430.667969 391.292969 C 430.667969 390.640625 430.882812 390.09375 430.882812 389.441406 C 431.210938 382.472656 431.539062 375.503906 431.863281 368.640625 Z M 376.433594 214.441406 C 376.433594 213.894531 376.433594 213.570312 376.433594 213.351562 C 373.929688 204.3125 371.207031 195.273438 368.160156 186.34375 C 367.722656 185.144531 367.070312 184.167969 366.089844 183.402344 C 356.070312 175.671875 345.507812 168.703125 334.289062 162.714844 C 326.667969 158.683594 318.9375 154.871094 310.988281 151.496094 C 310.222656 151.171875 309.351562 150.625 308.15625 150.625 C 310.113281 154.761719 311.75 158.683594 313.164062 162.714844 C 313.601562 164.019531 314.363281 164.457031 315.558594 164.78125 C 326.230469 167.394531 336.578125 171.097656 346.8125 175.128906 C 347.03125 175.128906 347.140625 175.238281 347.359375 175.34375 C 347.683594 175.5625 348.011719 175.890625 347.902344 176.324219 C 347.792969 176.761719 347.359375 176.652344 347.03125 176.652344 C 345.941406 176.433594 344.855469 176.214844 343.875 176 C 337.339844 174.367188 330.914062 172.730469 324.382812 171.097656 C 321.550781 170.445312 318.71875 169.683594 315.886719 169.355469 C 315.886719 169.683594 315.886719 169.792969 315.886719 169.902344 C 319.261719 180.355469 322.3125 190.808594 324.925781 201.371094 C 325.144531 202.242188 325.6875 202.570312 326.449219 202.679688 C 328.847656 203.113281 331.132812 203.660156 333.417969 204.09375 C 344.527344 206.382812 355.742188 208.667969 366.851562 211.5 C 370.011719 212.261719 373.167969 213.242188 376.542969 214.113281 Z M 266.882812 189.175781 C 266.664062 184.382812 266.445312 179.484375 266.121094 174.691406 C 265.902344 171.316406 265.464844 168.050781 265.25 164.671875 C 265.25 163.800781 264.921875 163.148438 263.832031 163.039062 C 259.914062 162.820312 255.882812 162.496094 251.964844 162.386719 C 246.410156 162.277344 240.855469 162.167969 235.300781 162.167969 C 226.917969 162.167969 218.640625 162.167969 210.253906 162.714844 C 209.058594 162.714844 208.621094 163.148438 208.511719 164.347656 C 208.1875 167.070312 207.640625 169.683594 207.207031 172.40625 C 206.226562 178.285156 205.355469 184.167969 204.375 189.9375 C 204.15625 191.027344 204.375 191.355469 205.464844 191.246094 C 206.878906 191.246094 208.1875 191.027344 209.601562 191.027344 C 219.402344 190.917969 229.3125 191.136719 239.113281 191.460938 C 242.054688 191.460938 244.992188 191.679688 247.933594 191.898438 C 253.921875 192.332031 259.914062 192.769531 265.902344 193.3125 C 266.664062 193.3125 267.101562 193.097656 267.101562 192.332031 C 267.101562 191.246094 267.101562 190.15625 267.101562 189.066406 Z M 326.015625 520.554688 C 325.035156 520.773438 324.273438 520.882812 323.511719 520.992188 C 311.964844 523.386719 300.3125 525.457031 288.664062 526.980469 C 282.347656 527.742188 276.03125 528.503906 269.714844 528.941406 C 268.734375 528.941406 268.40625 529.269531 268.296875 530.25 C 268.1875 532.316406 267.863281 534.496094 267.644531 536.5625 C 267.210938 541.027344 266.773438 545.492188 266.011719 549.957031 C 265.464844 553.445312 264.703125 556.929688 263.832031 560.304688 C 264.59375 560.738281 265.25 560.414062 265.902344 560.304688 C 274.832031 559.214844 283.761719 558.015625 292.691406 556.492188 C 300.640625 555.078125 308.480469 553.550781 316.429688 551.917969 C 317.300781 551.703125 317.957031 551.59375 318.171875 550.613281 C 320.351562 543.316406 322.855469 536.238281 324.488281 528.832031 C 325.035156 526.21875 325.6875 523.496094 325.90625 520.445312 Z M 134.894531 513.042969 C 135.113281 512.496094 134.894531 512.171875 134.894531 511.84375 C 134.132812 508.46875 133.371094 505.203125 132.609375 501.824219 C 130.648438 493.222656 128.796875 484.621094 127.273438 476.015625 C 127.054688 475.035156 126.730469 474.492188 125.53125 474.382812 C 123.789062 474.273438 122.15625 473.839844 120.523438 473.621094 C 108.324219 471.769531 96.128906 469.699219 84.148438 466.652344 C 83.714844 466.542969 83.167969 466.105469 82.625 466.433594 C 82.296875 467.085938 82.625 467.738281 82.625 468.285156 C 84.367188 478.628906 86.328125 488.976562 88.289062 499.210938 C 88.503906 500.300781 89.050781 500.84375 90.246094 501.171875 C 100.046875 503.457031 109.851562 506.074219 119.542969 508.902344 C 124.550781 510.429688 129.667969 511.734375 134.894531 512.933594 Z M 370.882812 187.652344 C 370.664062 188.085938 370.882812 188.414062 370.882812 188.738281 C 374.476562 197.34375 377.632812 206.054688 380.464844 214.875 C 380.683594 215.636719 381.117188 216.183594 381.988281 216.402344 C 384.058594 217.054688 386.125 217.816406 388.085938 218.796875 C 389.71875 219.558594 391.355469 220.320312 392.878906 221.082031 C 393.421875 221.410156 394.402344 221.628906 394.078125 222.5 C 393.75 223.480469 392.878906 222.714844 392.335938 222.5 C 391.789062 222.390625 391.136719 222.0625 390.589844 221.84375 C 388.195312 220.972656 385.800781 220.210938 383.40625 219.449219 C 382.96875 219.339844 382.535156 219.015625 382.097656 219.449219 C 382.097656 219.886719 382.097656 220.320312 382.316406 220.867188 C 387 236.003906 390.917969 251.355469 393.859375 266.929688 C 394.078125 268.238281 394.621094 268.671875 395.929688 269 C 403.007812 270.414062 409.976562 271.9375 416.835938 273.789062 C 417.382812 273.898438 417.816406 274.226562 418.46875 273.789062 C 418.359375 273.136719 418.253906 272.484375 418.144531 271.832031 C 417.054688 267.148438 415.964844 262.355469 414.875 257.671875 C 412.480469 246.785156 410.195312 235.894531 407.578125 225.113281 C 407.363281 224.023438 407.035156 223.042969 406.273438 222.171875 C 401.917969 216.945312 397.34375 211.828125 392.550781 207.035156 C 386.78125 201.371094 380.789062 195.820312 374.476562 190.699219 C 373.277344 189.71875 372.1875 188.632812 370.882812 187.867188 Z M 70.753906 269.652344 C 67.050781 270.304688 63.675781 270.304688 60.300781 271.175781 C 53.441406 273.027344 46.578125 275.316406 39.828125 277.710938 C 38.847656 278.039062 38.410156 278.472656 38.195312 279.453125 C 36.558594 287.621094 35.035156 295.789062 33.945312 304.0625 C 33.402344 308.421875 32.859375 312.886719 32.53125 317.242188 C 32.3125 319.964844 31.878906 322.6875 32.09375 325.410156 C 33.402344 325.410156 34.382812 324.753906 35.472656 324.429688 C 45.273438 321.050781 55.074219 317.675781 65.527344 316.480469 C 66.726562 316.371094 66.835938 315.714844 66.835938 314.628906 C 66.835938 308.09375 67.160156 301.667969 67.597656 295.242188 C 68.03125 289.144531 68.6875 283.15625 69.664062 277.167969 C 70.101562 274.769531 70.429688 272.375 70.753906 269.652344 Z M 49.847656 204.964844 C 49.847656 205.183594 49.847656 205.292969 49.953125 205.292969 C 50.828125 205.511719 51.804688 205.835938 52.675781 206.054688 C 61.714844 208.234375 68.359375 213.351562 72.28125 221.953125 C 74.566406 226.964844 76.417969 232.082031 77.941406 237.308594 C 78.160156 237.960938 78.160156 238.726562 78.703125 239.269531 C 78.921875 238.941406 79.03125 238.832031 79.140625 238.726562 C 82.953125 232.082031 87.417969 225.875 92.535156 220.210938 C 97.980469 214.332031 104.1875 209.648438 111.59375 206.816406 C 111.917969 206.707031 112.570312 206.816406 112.570312 206.054688 C 112.246094 205.511719 111.699219 205.511719 111.15625 205.402344 C 109.632812 205.183594 108.105469 204.53125 106.691406 203.984375 C 101.683594 202.027344 97.652344 198.757812 93.734375 195.164062 C 92.425781 193.96875 91.335938 192.769531 90.246094 191.355469 C 86.21875 185.691406 82.953125 179.59375 81.535156 172.730469 C 81.210938 171.425781 80.882812 170.117188 80.554688 168.703125 C 80.554688 168.265625 80.554688 167.722656 79.902344 167.613281 C 79.792969 167.832031 79.683594 168.15625 79.574219 168.375 C 77.070312 175.5625 73.476562 182.207031 69.121094 188.523438 C 65.527344 193.640625 61.5 198.324219 56.164062 201.808594 C 54.09375 203.222656 51.804688 204.203125 49.519531 205.183594 Z M 192.722656 561.066406 C 194.898438 561.066406 194.898438 561.066406 194.683594 559.433594 C 193.917969 553.660156 193.15625 547.78125 192.503906 542.007812 C 192.070312 538.199219 191.632812 534.277344 191.089844 530.464844 C 190.871094 528.832031 190.761719 528.832031 189.238281 528.722656 C 186.078125 528.398438 182.8125 528.070312 179.652344 527.742188 C 167.566406 526.21875 155.476562 524.148438 143.5 521.425781 C 143.0625 521.425781 142.738281 521.320312 142.300781 521.210938 C 141.757812 521.210938 141.539062 521.425781 141.539062 521.972656 C 141.539062 522.296875 141.539062 522.625 141.648438 522.953125 C 143.824219 532.644531 145.894531 542.226562 148.617188 551.808594 C 149.054688 553.445312 149.816406 554.207031 151.558594 554.640625 C 159.398438 556.382812 167.238281 557.800781 175.082031 558.996094 C 181.070312 559.867188 186.949219 560.632812 192.613281 561.175781 Z M 145.570312 552.789062 C 145.785156 552.246094 145.570312 551.917969 145.351562 551.484375 C 142.300781 542.007812 139.796875 532.316406 137.402344 522.734375 C 136.640625 519.46875 137.402344 520.121094 133.917969 519.359375 C 120.628906 516.089844 107.453125 512.386719 94.605469 507.378906 C 93.078125 506.726562 91.445312 506.179688 89.921875 505.527344 C 89.484375 506.074219 89.703125 506.507812 89.921875 506.835938 C 91.882812 516.308594 94.277344 525.566406 97.109375 534.710938 C 97.328125 535.476562 97.761719 536.019531 98.414062 536.457031 C 101.136719 538.414062 103.859375 540.265625 106.691406 542.226562 C 107.234375 542.554688 107.78125 542.769531 108.324219 542.878906 C 115.078125 544.296875 121.828125 545.710938 128.363281 547.78125 C 133.589844 549.414062 138.816406 551.265625 144.261719 552.574219 C 144.699219 552.679688 145.132812 553.007812 145.675781 552.679688 Z M 320.679688 201.808594 C 321.003906 201.261719 320.789062 201.046875 320.679688 200.71875 C 318.5 190.699219 315.996094 180.679688 313.382812 170.664062 C 313.054688 169.355469 312.402344 168.8125 311.09375 168.59375 C 298.355469 166.199219 285.394531 165 272.546875 163.800781 C 271.675781 163.800781 271.457031 163.910156 271.566406 164.890625 C 272.546875 172.515625 273.089844 180.027344 273.308594 187.761719 C 273.308594 189.503906 273.417969 191.355469 273.417969 193.097656 C 273.417969 193.96875 273.632812 194.402344 274.613281 194.402344 C 274.941406 194.402344 275.265625 194.402344 275.59375 194.511719 C 287.574219 195.820312 299.550781 197.777344 311.421875 200.066406 C 314.472656 200.609375 317.519531 201.261719 320.679688 201.808594 Z M 394.949219 271.722656 C 394.949219 272.15625 394.949219 272.484375 394.949219 272.703125 C 395.492188 276.402344 396.144531 280.105469 396.691406 283.808594 C 397.777344 291.433594 398.648438 299.054688 399.304688 306.785156 C 399.738281 311.796875 399.957031 316.804688 400.285156 321.925781 C 400.285156 323.339844 400.066406 323.558594 402.136719 323.992188 C 407.472656 324.863281 412.699219 325.953125 418.035156 327.152344 C 421.628906 328.023438 425.332031 328.785156 428.925781 329.65625 C 429.25 328.785156 428.925781 327.914062 428.925781 327.152344 C 428.488281 324.210938 428.160156 321.378906 427.617188 318.4375 C 425.441406 304.9375 422.5 291.648438 419.667969 278.363281 C 419.339844 276.839844 418.578125 276.296875 417.164062 275.96875 C 409.867188 274.445312 402.570312 273.136719 394.949219 271.9375 Z M 372.730469 507.816406 C 372.078125 507.707031 371.753906 507.816406 371.316406 508.03125 C 358.683594 512.171875 346.050781 515.980469 333.09375 518.921875 C 331.894531 519.25 331.460938 519.902344 331.242188 520.992188 C 329.933594 528.722656 327.539062 536.238281 324.597656 543.535156 C 323.617188 545.929688 322.746094 548.324219 321.875 550.722656 C 322.3125 550.9375 322.636719 550.828125 322.964844 550.722656 C 334.617188 548.109375 346.160156 545.167969 357.59375 541.464844 C 359.230469 540.921875 361.296875 540.703125 362.496094 539.613281 C 363.695312 538.414062 364.019531 536.457031 364.671875 534.820312 C 367.613281 527.199219 369.683594 519.359375 371.753906 511.515625 C 372.078125 510.320312 372.515625 509.230469 372.625 507.816406 Z M 62.042969 215.421875 C 60.410156 218.25 58.011719 220.429688 55.945312 222.824219 C 55.292969 223.480469 54.964844 224.242188 54.855469 225.113281 C 54.417969 227.507812 53.765625 229.796875 52.785156 231.972656 C 51.699219 234.476562 50.609375 236.984375 49.628906 239.488281 C 45.597656 250.050781 42.875 261.050781 39.9375 272.046875 C 39.9375 272.265625 39.9375 272.59375 40.152344 272.808594 C 44.945312 271.503906 49.738281 270.195312 54.636719 269 C 59.863281 267.691406 65.09375 266.601562 70.429688 265.515625 C 71.515625 265.296875 71.953125 264.859375 72.171875 263.878906 C 72.496094 262.355469 72.824219 260.832031 73.152344 259.308594 C 73.804688 256.148438 73.914062 252.773438 75.4375 249.832031 C 75.65625 249.289062 75.4375 248.960938 75.4375 248.417969 C 73.914062 241.230469 71.84375 234.152344 69.339844 227.179688 C 68.140625 223.914062 66.726562 220.757812 64.65625 217.816406 C 64.003906 216.835938 63.351562 215.964844 62.261719 215.3125 Z M 258.933594 566.183594 C 258.0625 566.183594 257.40625 566.183594 256.753906 566.292969 C 247.390625 567.273438 238.023438 567.925781 228.550781 568.035156 C 218.75 568.035156 209.058594 567.710938 199.257812 566.945312 C 198.382812 566.945312 198.167969 567.054688 198.277344 567.925781 C 198.710938 571.738281 199.039062 575.550781 199.472656 579.253906 C 199.691406 581.105469 199.582031 581.105469 201.433594 581.429688 C 205.898438 582.300781 210.253906 583.0625 214.828125 583.390625 C 218.53125 583.71875 222.34375 584.042969 226.046875 583.933594 C 230.945312 583.933594 235.847656 583.5 240.746094 583.171875 C 245.101562 582.847656 249.457031 582.300781 253.8125 581.867188 C 254.792969 581.867188 255.230469 581.429688 255.339844 580.339844 C 255.664062 578.492188 256.101562 576.746094 256.535156 575.003906 C 257.300781 572.066406 258.0625 569.234375 258.933594 566.183594 Z M 236.0625 138.753906 C 231.164062 138.539062 225.609375 138.972656 220.054688 139.410156 C 217.769531 139.625 215.480469 139.734375 213.085938 140.0625 C 211.777344 140.171875 211.671875 140.28125 211.671875 141.695312 C 211.671875 143.113281 211.671875 144.527344 211.453125 145.941406 C 211.015625 148.449219 210.582031 151.0625 210.144531 153.566406 C 209.929688 154.871094 210.144531 154.980469 211.34375 154.980469 C 212.324219 154.980469 213.414062 154.871094 214.394531 154.871094 C 219.621094 154.871094 224.957031 154.871094 230.183594 154.871094 C 235.410156 154.871094 240.527344 155.089844 245.753906 155.308594 C 251.417969 155.636719 257.082031 156.070312 262.742188 156.613281 C 263.722656 156.613281 263.941406 156.398438 263.941406 155.527344 C 263.722656 153.675781 263.398438 151.933594 263.289062 150.082031 C 263.070312 147.46875 262.417969 144.960938 262.636719 142.347656 C 262.742188 140.605469 262.742188 140.605469 261.109375 140.390625 C 253.050781 139.300781 244.992188 138.863281 236.0625 138.972656 Z M 272.328125 136.578125 C 272.652344 135.925781 272.328125 135.707031 272.328125 135.378906 C 269.824219 131.675781 267.101562 127.972656 263.722656 125.035156 C 261.65625 123.292969 259.042969 122.855469 256.535156 122.3125 C 253.378906 121.550781 250.113281 121.550781 246.734375 121.441406 C 241.507812 121.222656 236.390625 121.113281 231.164062 121.550781 C 223.867188 122.09375 216.679688 123.183594 209.382812 123.945312 C 207.96875 124.164062 206.660156 124.597656 205.464844 125.46875 C 201.652344 128.300781 198.382812 131.675781 195.335938 135.269531 C 194.898438 135.816406 194.136719 136.140625 194.136719 137.230469 C 220.273438 132.332031 246.410156 131.132812 272.4375 136.46875 Z M 316.648438 555.949219 C 315.886719 555.621094 315.453125 555.949219 315.015625 555.949219 C 307.828125 557.582031 300.640625 559.214844 293.453125 560.632812 C 283.652344 562.589844 273.742188 564.226562 263.722656 565.421875 C 262.851562 565.421875 262.199219 565.640625 261.871094 566.730469 C 260.785156 570.433594 259.476562 574.027344 258.277344 577.621094 C 257.953125 578.707031 257.40625 579.90625 257.515625 581.214844 C 258.605469 581.214844 259.585938 581.105469 260.566406 580.996094 C 271.457031 579.578125 282.238281 577.402344 292.910156 575.003906 C 298.464844 573.699219 303.90625 572.175781 309.242188 570.214844 C 309.898438 569.996094 310.660156 569.886719 310.660156 568.796875 C 310.660156 568.363281 311.203125 567.925781 311.53125 567.492188 C 314.363281 564.117188 315.453125 560.085938 316.648438 555.949219 Z M 206.550781 140.933594 C 206.117188 140.933594 206.007812 140.824219 205.898438 140.824219 C 190.109375 143.003906 174.644531 146.378906 159.289062 150.84375 C 157.546875 151.386719 155.371094 151.386719 154.171875 152.695312 C 152.972656 154 152.648438 156.179688 152.210938 158.03125 C 151.667969 159.882812 150.90625 161.625 150.6875 163.691406 C 151.449219 163.476562 151.992188 163.367188 152.648438 163.257812 C 168.765625 159.011719 185.097656 156.398438 201.652344 155.527344 C 202.742188 155.527344 203.175781 155.089844 203.394531 154 C 204.265625 149.644531 205.027344 145.289062 206.550781 141.042969 Z M 311.09375 163.800781 C 311.09375 163.367188 311.203125 163.257812 311.09375 163.148438 C 309.898438 158.902344 308.371094 154.871094 306.847656 150.734375 C 306.523438 149.972656 305.976562 149.753906 305.324219 149.535156 C 299.335938 147.902344 293.671875 145.398438 287.355469 144.855469 C 282.5625 144.527344 277.988281 142.894531 273.308594 142.023438 C 271.457031 141.695312 269.605469 141.152344 267.535156 141.042969 C 267.863281 142.238281 268.296875 143.328125 268.515625 144.527344 C 269.167969 148.230469 269.824219 151.933594 270.367188 155.636719 C 270.585938 156.832031 271.019531 157.378906 272.109375 157.269531 C 272.328125 157.269531 272.652344 157.269531 272.871094 157.378906 C 282.671875 158.574219 292.472656 159.882812 302.164062 161.84375 C 304.996094 162.386719 307.9375 163.039062 310.878906 163.691406 Z M 370.773438 534.605469 C 371.644531 534.496094 372.078125 533.949219 372.515625 533.625 C 378.613281 529.703125 384.058594 525.128906 389.503906 520.445312 C 392.441406 518.050781 395.164062 515.546875 397.777344 512.824219 C 399.085938 511.410156 399.085938 511.734375 398.105469 510.210938 C 394.402344 504.546875 389.828125 499.757812 384.601562 495.507812 C 382.96875 494.203125 381.335938 493.003906 379.375 492.132812 C 378.722656 496.054688 378.175781 499.757812 377.523438 503.675781 C 379.265625 503.566406 380.683594 503.023438 382.097656 502.585938 C 382.640625 502.480469 383.1875 502.261719 383.730469 502.371094 C 384.277344 502.371094 384.382812 502.804688 384.058594 503.242188 C 383.839844 503.675781 383.296875 503.785156 382.859375 503.894531 C 381.445312 504.4375 380.027344 504.875 378.613281 505.308594 C 377.523438 505.636719 376.980469 506.289062 376.761719 507.488281 C 375.128906 516.527344 373.386719 525.566406 370.773438 534.605469 Z M 129.996094 271.285156 C 132.175781 267.367188 134.460938 263.773438 137.511719 260.722656 C 140.558594 257.671875 144.152344 255.496094 148.074219 253.425781 C 143.5 251.03125 141.867188 249.722656 139.6875 246.675781 C 137.945312 244.167969 136.746094 241.449219 135.769531 238.617188 C 135.222656 236.765625 134.570312 234.914062 133.917969 232.953125 C 133.589844 233.390625 133.480469 233.605469 133.371094 233.933594 C 131.304688 239.8125 127.925781 244.824219 123.898438 249.398438 C 121.394531 252.226562 118.5625 254.515625 114.859375 255.605469 C 114.207031 255.820312 113.335938 255.820312 112.679688 256.367188 C 120.304688 259.199219 126.402344 263.773438 129.996094 271.394531 Z M 197.839844 580.667969 C 197.1875 576.421875 196.640625 572.5 195.988281 568.472656 C 195.664062 566.621094 195.664062 566.621094 193.917969 566.402344 C 181.394531 565.203125 168.871094 563.351562 156.566406 560.738281 C 154.933594 560.414062 153.300781 559.867188 151.449219 559.757812 C 151.777344 561.9375 152.757812 563.789062 153.191406 565.75 C 153.519531 566.945312 154.171875 567.601562 155.371094 568.144531 C 165.496094 571.957031 175.84375 575.222656 186.40625 577.945312 C 190.109375 578.925781 193.8125 579.90625 197.839844 580.667969 Z M 21.421875 279.34375 C 23.382812 278.582031 25.125 277.710938 26.976562 277.167969 C 29.808594 276.1875 32.640625 275.207031 35.582031 274.335938 C 36.453125 274.007812 36.886719 273.679688 37.105469 272.703125 C 37.867188 269.433594 38.628906 266.167969 39.5 262.902344 C 42.113281 252.554688 44.726562 242.210938 48.757812 232.410156 C 48.757812 232.191406 48.976562 231.863281 48.757812 231.644531 C 47.886719 232.300781 47.339844 233.28125 46.578125 234.152344 C 40.480469 241.554688 34.492188 249.179688 29.480469 257.457031 C 28.828125 258.542969 28.285156 259.632812 27.957031 260.832031 C 26.757812 264.859375 25.671875 268.890625 24.144531 272.703125 C 23.273438 274.988281 22.402344 277.273438 21.53125 279.5625 Z M 359.882812 543.207031 C 359.121094 542.988281 358.792969 543.207031 358.464844 543.425781 C 347.140625 547.5625 335.488281 550.9375 323.835938 553.769531 C 321.332031 554.316406 319.917969 555.402344 319.046875 557.910156 C 317.738281 561.828125 315.886719 565.640625 312.730469 568.472656 C 312.730469 568.472656 312.730469 568.691406 312.730469 569.015625 C 329.609375 562.480469 345.398438 554.207031 359.992188 543.207031 Z M 150.035156 566.074219 C 150.140625 565.75 150.25 565.640625 150.25 565.640625 C 149.707031 564.117188 149.054688 562.589844 148.726562 560.957031 C 148.292969 559.324219 147.417969 558.5625 145.785156 558.125 C 135.984375 555.621094 126.183594 552.679688 117.035156 548.109375 C 116.820312 548 116.492188 547.890625 116.164062 548.214844 C 127.164062 554.75 138.164062 561.175781 150.140625 565.96875 Z M 41.898438 177.960938 C 48.210938 177.304688 53.984375 174.910156 59.757812 172.40625 C 59.972656 172.40625 60.300781 172.1875 60.410156 171.96875 C 60.734375 171.535156 60.628906 171.207031 60.191406 171.097656 C 59.863281 171.097656 59.539062 171.097656 59.210938 171.097656 C 50.0625 170.878906 40.917969 171.316406 31.769531 171.75 C 29.15625 171.859375 26.652344 171.75 24.035156 171.097656 C 22.730469 170.773438 21.53125 170.773438 20.226562 171.097656 C 19.570312 171.316406 19.464844 171.75 19.679688 172.40625 C 20.335938 173.820312 21.421875 174.910156 22.949219 175.34375 C 28.175781 176.980469 33.402344 178.394531 38.957031 178.285156 C 39.9375 178.285156 40.917969 178.285156 41.789062 178.175781 Z M 42.113281 124.164062 C 42.769531 125.359375 43.640625 126.449219 44.183594 127.648438 C 46.578125 132.332031 49.410156 136.796875 52.460938 141.042969 C 56.269531 146.269531 61.390625 150.191406 66.726562 153.785156 C 66.835938 153.785156 66.941406 154 67.050781 154 C 67.269531 154 67.488281 154.109375 67.597656 154 C 67.816406 153.890625 67.921875 153.457031 67.816406 153.238281 C 67.488281 152.695312 67.050781 152.042969 66.726562 151.496094 C 62.804688 145.617188 58.992188 139.625 54.3125 134.179688 C 51.152344 130.480469 47.886719 126.886719 45.164062 122.855469 C 44.726562 122.203125 43.964844 121.984375 43.203125 121.984375 C 41.679688 121.984375 41.242188 122.636719 41.898438 124.054688 Z M 91.988281 146.921875 C 93.40625 139.953125 94.605469 132.875 95.257812 125.6875 C 95.691406 120.679688 96.238281 115.667969 97.652344 110.769531 C 97.871094 110.007812 97.871094 109.136719 97.871094 108.371094 C 97.871094 107.9375 97.871094 107.5 97.328125 107.390625 C 96.890625 107.390625 96.5625 107.390625 96.238281 107.828125 C 95.691406 108.480469 95.476562 109.242188 95.257812 110.007812 C 93.625 115.886719 92.097656 121.875 91.335938 127.972656 C 90.464844 134.507812 90.574219 141.152344 91.226562 147.902344 C 91.988281 147.683594 91.988281 147.25 92.097656 146.8125 Z M 91.988281 146.921875 " fill-opacity="1" fill-rule="nonzero"/></g></svg>